<?xml version="1.0" encoding="UTF-8"?>
<svg version="1.1" xmlns="http://www.w3.org/2000/svg" width="707" height="353">
<path d="M0 0 C6.89250035 5.7579826 11.60676529 14.043675 12.5859375 23.015625 C12.7123734 33.28221968 10.39608552 42.26898525 3.25 49.9375 C-3.65465632 55.9375 -3.65465632 55.9375 -6.75 55.9375 C-6.75 90.5875 -6.75 125.2375 -6.75 160.9375 C12.09034247 162.4134628 12.09034247 162.4134628 28.09570312 155.04125977 C30.20259179 151.20135715 29.76218492 147.16104652 29.75 142.875 C29.77835937 141.96427734 29.80671875 141.05355469 29.8359375 140.11523438 C29.84329432 137.61943402 29.78431573 135.37606005 29.25 132.9375 C27.02371211 130.83769094 27.02371211 130.83769094 24.25 129.9375 C17.18395212 124.60191282 13.0476916 118.58969913 11.25 109.9375 C10.24523968 100.3862242 11.28841095 91.63528182 16.86328125 83.6171875 C23.14349195 76.0697946 30.53430071 71.64396773 40.33203125 70.61328125 C50.28379847 70.27093101 58.33007639 72.20822233 66.125 78.5625 C71.74460821 83.93033365 75.90868786 91.32139319 76.48828125 99.16015625 C76.70886137 110.57227495 74.99071355 118.42385504 67.32421875 127.1484375 C65.25 128.9375 65.25 128.9375 63.48364258 129.68261719 C61.38842511 130.58258352 59.89975086 131.35253637 58.25 132.9375 C57.30297562 136.42982313 57.46583009 139.8406609 57.5625 143.4375 C57.43297154 157.04352339 55.04518943 166.91158615 45.40234375 176.83984375 C37.56867812 184.20629274 29.25749488 187.11330444 18.640625 187.03515625 C17.91381531 187.0337413 17.18700562 187.03232635 16.43817139 187.03086853 C14.12540506 187.02528792 11.81273688 187.01273904 9.5 187 C7.92838682 186.99498249 6.35677211 186.99042002 4.78515625 186.98632812 C0.94006657 186.97532485 -2.9049501 186.95807361 -6.75 186.9375 C-6.87301664 191.45993295 -6.88394502 195.9760545 -6.875 200.5 C-6.92914063 202.41522461 -6.92914063 202.41522461 -6.984375 204.36914062 C-7.06952337 211.43025751 -7.06952337 211.43025751 -3.57128906 217.22387695 C-0.93128295 219.05217395 -0.93128295 219.05217395 1.84033203 220.56958008 C4.79467422 222.24670057 6.16110566 224.02082311 7.75 227 C8.1934375 227.79535156 8.636875 228.59070313 9.09375 229.41015625 C13.1503567 238.27713103 13.72131769 247.33968197 10.75 256.6875 C7.24897862 265.11451987 1.4266827 270.84995956 -6.57421875 275.0625 C-14.59743609 278.28907214 -25.04732127 278.3055067 -33.125 275.375 C-42.10390358 271.17305005 -48.22208282 264.29289742 -51.859375 255.1484375 C-54.12105141 246.99449888 -54.06481031 237.47733079 -50.01171875 229.92578125 C-49.59535156 229.26964844 -49.17898437 228.61351562 -48.75 227.9375 C-48.07904297 226.87595703 -48.07904297 226.87595703 -47.39453125 225.79296875 C-44.12274427 221.06510499 -40.64210422 217.94802567 -35.75 214.9375 C-35.09 214.9375 -34.43 214.9375 -33.75 214.9375 C-33.75 162.4675 -33.75 109.9975 -33.75 55.9375 C-35.4 55.2775 -37.05 54.6175 -38.75 53.9375 C-46.23759438 48.94577041 -49.95180037 42.33209888 -52.75 33.9375 C-53.64702343 21.8056257 -52.5035712 13.0589653 -44.5 3.5625 C-32.84760877 -8.64567963 -13.75364614 -9.73546905 0 0 Z M-23.375 21.0625 C-25.89631509 22.74979673 -25.89631509 22.74979673 -26.8125 25.375 C-26.96671192 28.04433014 -26.96671192 28.04433014 -25.25 30.3125 C-22.72066137 32.3119306 -22.72066137 32.3119306 -19 31.6875 C-17.9275 31.44 -16.855 31.1925 -15.75 30.9375 C-14.98477199 27.58291845 -14.98477199 27.58291845 -14.75 23.9375 C-16.9923879 20.57391816 -19.55377121 19.42483052 -23.375 21.0625 Z M40.25 97.9375 C37.68312633 101.7878105 38.41711276 103.52319763 39.25 107.9375 C44.53199593 109.13738045 44.53199593 109.13738045 49.25 106.9375 C49.66666667 103.4375 49.66666667 103.4375 49.25 99.9375 C47.30541686 97.5653031 47.30541686 97.5653031 43.75 97.625 C42.595 97.728125 41.44 97.83125 40.25 97.9375 Z M-25.125 240.625 C-26.99554965 242.81587691 -26.99554965 242.81587691 -26.75 245.5 C-25.52010451 248.49787025 -24.70578251 249.57943776 -21.75 250.9375 C-18.52825456 250.22526153 -18.52825456 250.22526153 -15.75 248.9375 C-14.57991255 244.32740512 -14.57991255 244.32740512 -15.875 240 C-19.47360608 237.96078989 -21.79074619 238.25592492 -25.125 240.625 Z " fill="#EB8004" transform="translate(71.75,41.0625)"/>
<path d="M0 0 C2.64 0 5.28 0 8 0 C8.33 5.61 8.66 11.22 9 17 C10.98 16.34 12.96 15.68 15 15 C21.83676315 14.31790994 29.30684629 13.77159409 35.3125 17.58984375 C39.66264854 21.22503732 42.4977887 24.40707712 43.31347656 30.24267578 C43.51569752 32.85579737 43.60013171 35.44176469 43.625 38.0625 C43.63595703 38.91328125 43.64691406 39.7640625 43.65820312 40.640625 C43.51253727 47.12024407 42.07915245 52.75398193 37.51782227 57.5625 C32.58158899 61.85739661 28.41454082 62.20466998 22.125 62.25 C21.41730469 62.270625 20.70960938 62.29125 19.98046875 62.3125 C15.44272528 62.3463007 12.64887576 61.71877017 9 59 C8.34 59.99 7.68 60.98 7 62 C4.69 62 2.38 62 0 62 C0 41.54 0 21.08 0 0 Z M13 24 C9.59561981 27.22235408 7.75259584 29.37435613 7.3359375 34.09375 C7.32280021 35.56249896 7.33629268 37.0317024 7.375 38.5 C7.35566406 39.23347656 7.33632813 39.96695313 7.31640625 40.72265625 C7.35242583 44.74964503 7.82389183 47.27449232 10.39453125 50.4453125 C14.25343385 54.22900411 16.57714937 54.88707535 21.9375 55.3125 C25.91403325 55.19245371 28.65830089 54.25370405 32 52 C36.32484518 46.1838289 36.59534085 40.03584645 36 33 C35.11220529 29.23910589 33.77445242 26.64537702 30.75 24.125 C24.99992179 21.77269528 18.64142522 21.0023015 13 24 Z " fill="#E53B3C" transform="translate(655,100)"/>
<path d="M0 0 C2.64 0 5.28 0 8 0 C8 20.46 8 40.92 8 62 C5.36 62 2.72 62 0 62 C-0.33 61.34 -0.66 60.68 -1 60 C-1.49113281 60.3196875 -1.98226562 60.639375 -2.48828125 60.96875 C-8.9138568 63.60693343 -18.47526123 63.29980524 -24.9765625 60.90234375 C-29.71522979 57.93077146 -33.00106533 54.29782409 -35 49 C-35.52878535 45.4609329 -35.51542107 42.00930119 -35.4375 38.4375 C-35.44458984 37.51775391 -35.45167969 36.59800781 -35.45898438 35.65039062 C-35.40960583 30.36688654 -34.97801128 26.54093919 -32 22 C-26.31201363 16.55931738 -21.95291478 14.71319337 -14.125 14.6875 C-12.36542969 14.66236328 -12.36542969 14.66236328 -10.5703125 14.63671875 C-7 15 -7 15 0 18 C0 12.06 0 6.12 0 0 Z M-26.78515625 28.22265625 C-28.33493616 31.76572222 -28.4336123 34.57701473 -28.4375 38.4375 C-28.45683594 39.71496094 -28.47617187 40.99242187 -28.49609375 42.30859375 C-27.92390324 46.56623176 -26.68234892 48.68622223 -24 52 C-19.21348936 55.33942603 -14.65499037 55.73981057 -9 55 C-5.49767707 53.76770119 -3.63305601 52.81543643 -1.359375 49.88671875 C0.36640673 46.22191215 0.44086181 42.96634449 0.375 39 C0.38660156 38.30132812 0.39820313 37.60265625 0.41015625 36.8828125 C0.37845819 31.28282203 -0.87076152 28.13389765 -4.78515625 24.2109375 C-7.77148283 22.57820163 -10.0490095 22.60149602 -13.4375 22.625 C-15.10619141 22.61339844 -15.10619141 22.61339844 -16.80859375 22.6015625 C-21.41909636 23.17716992 -23.88375081 24.61018427 -26.78515625 28.22265625 Z " fill="#14B469" transform="translate(317,100)"/>
<path d="M0 0 C4.16766995 2.35905846 7.24470675 4.91903577 8.93310547 9.59301758 C9.47865967 12.87441725 9.454929 16.13298707 9.4453125 19.44921875 C9.44626923 20.17365677 9.44722595 20.89809479 9.44821167 21.64448547 C9.44889033 23.16997363 9.447058 24.69546471 9.44287109 26.22094727 C9.437495 28.56468101 9.44283859 30.90822514 9.44921875 33.25195312 C9.44855837 34.73437542 9.44727804 36.21679761 9.4453125 37.69921875 C9.44733673 38.40334396 9.44936096 39.10746918 9.45144653 39.83293152 C9.42746776 44.76003224 9.42746776 44.76003224 8.3125 45.875 C6.31291636 45.91580783 4.31204746 45.91754356 2.3125 45.875 C1.9825 44.885 1.6525 43.895 1.3125 42.875 C0.49523437 43.36097656 -0.32203125 43.84695312 -1.1640625 44.34765625 C-5.35046507 46.16238286 -8.56182647 46.37471212 -13.0625 46.3125 C-13.81619873 46.30565186 -14.56989746 46.29880371 -15.34643555 46.29174805 C-22.49687525 46.08470246 -26.64038134 44.46505086 -32.1875 39.75 C-34.42085341 35.46940596 -34.31179997 31.60407224 -33.6875 26.875 C-31.80033028 21.76854077 -28.38207439 20.18110672 -23.6875 17.875 C-20.63703399 16.91208463 -17.89404335 16.75788693 -14.703125 16.77734375 C-13.76855469 16.78056641 -12.83398438 16.78378906 -11.87109375 16.78710938 C-10.41896484 16.79967773 -10.41896484 16.79967773 -8.9375 16.8125 C-7.95394531 16.81701172 -6.97039063 16.82152344 -5.95703125 16.82617188 C-3.53379209 16.83793517 -1.11067727 16.85437316 1.3125 16.875 C0.454501 12.05231975 0.454501 12.05231975 -2.55078125 8.484375 C-9.40044815 6.5309051 -15.92652254 6.43075656 -22.6875 8.875 C-23.3475 9.535 -24.0075 10.195 -24.6875 10.875 C-27.70055957 10.48621812 -29.08435311 9.61043126 -31.6875 7.875 C-31.33545359 5.25979813 -30.99439341 4.1394433 -28.96484375 2.390625 C-20.28523175 -2.30419017 -9.47086602 -2.98323294 0 0 Z M-24.6875 26.875 C-26.88236684 29.61332802 -26.88236684 29.61332802 -26.8125 32.3125 C-25.2845987 35.79271962 -23.41348895 36.65112984 -20 38.14453125 C-14.34616373 39.93045588 -9.5795898 39.56360016 -4.25 37 C-1.98050354 35.76209284 -0.53655433 34.72405433 1.3125 32.875 C1.55503813 30.66427023 1.55503813 30.66427023 1.4375 28.25 C1.41945313 27.43273437 1.40140625 26.61546875 1.3828125 25.7734375 C1.35960937 25.14695313 1.33640625 24.52046875 1.3125 23.875 C-12.02814325 23.24832301 -12.02814325 23.24832301 -24.6875 26.875 Z " fill="#ED3937" transform="translate(635.6875,116.125)"/>
<path d="M0 0 C4.48086127 2.74318522 7.69923807 6.34771422 9.375 11.375 C9.375 15.335 9.375 19.295 9.375 23.375 C-2.505 23.375 -14.385 23.375 -26.625 23.375 C-25.57145444 31.84287976 -25.57145444 31.84287976 -22.1875 34.875 C-17.12164843 37.84037653 -12.35692523 37.89364534 -6.625 37.375 C-3.66308413 36.16829353 -1.24481948 34.76943058 1.4375 33.0625 C3.375 32.375 3.375 32.375 6.125 33.25 C6.8675 33.62125 7.61 33.9925 8.375 34.375 C7.81236042 37.88009251 6.72314818 39.32768008 4 41.5625 C3.39414062 42.07167969 2.78828125 42.58085937 2.1640625 43.10546875 C-1.94863404 46.02386695 -6.54222428 45.62922698 -11.375 45.6875 C-12.55449219 45.73100586 -12.55449219 45.73100586 -13.7578125 45.77539062 C-20.31252137 45.84616406 -24.44220537 44.29375113 -29.3671875 39.77734375 C-34.04799561 33.72457465 -33.86600472 28.93604623 -33.9375 21.5625 C-33.96650391 20.57701172 -33.99550781 19.59152344 -34.02539062 18.57617188 C-34.07862663 12.47860149 -33.67999377 9.01670533 -29.625 4.375 C-21.96264833 -2.69794 -9.60026535 -4.4054755 0 0 Z M-23.296875 8.74609375 C-25.6096774 11.35124477 -26.625 12.84663562 -26.625 16.375 C-17.385 16.375 -8.145 16.375 1.375 16.375 C1.81847629 11.6499049 1.81847629 11.6499049 0 9.1875 C-6.48508248 4.70970495 -16.86934487 3.47491834 -23.296875 8.74609375 Z " fill="#18B468" transform="translate(368.625,116.625)"/>
<path d="M0 0 C4.909819 3.17092477 8.01841641 6.70662819 10.375 12.0625 C12.03003505 22.32371732 11.82384907 31.87208423 6.1875 40.8125 C1.00003174 45.85175488 -4.11873075 46.43745376 -11 46.375 C-12.17175781 46.4049707 -12.17175781 46.4049707 -13.3671875 46.43554688 C-18.71671452 46.43104391 -21.77576196 45.48611252 -26 41.9375 C-27.64453125 40.12109375 -27.64453125 40.12109375 -28.8125 38.375 C-29.21082031 37.79621094 -29.60914063 37.21742188 -30.01953125 36.62109375 C-32.5909415 32.20564428 -32.25591738 27.69532063 -32.3125 22.75 C-32.34150391 21.92435547 -32.37050781 21.09871094 -32.40039062 20.24804688 C-32.46147803 14.28497669 -31.37383491 9.90376706 -28 4.9375 C-26.18359375 3.09765625 -26.18359375 3.09765625 -24.4375 2 C-23.56931641 1.42958984 -23.56931641 1.42958984 -22.68359375 0.84765625 C-16.49913977 -2.49567966 -6.55445605 -2.40625301 0 0 Z M-22 9.9375 C-25.75762912 16.15702407 -26.09142217 22.99881467 -24.53125 30.05859375 C-23.39801602 33.19522351 -21.84069081 35.08903801 -19.4375 37.375 C-13.97969685 39.85581961 -8.92800093 39.51036975 -3.125 38.375 C0.23764002 36.10027293 1.8726852 33.76188516 3 29.9375 C4.11232973 19.36029511 4.11232973 19.36029511 0 9.9375 C-2.40413455 7.52810476 -3.65091214 6.98297505 -7.05859375 6.5390625 C-8.17363281 6.54679687 -9.28867187 6.55453125 -10.4375 6.5625 C-12.10619141 6.55089844 -12.10619141 6.55089844 -13.80859375 6.5390625 C-17.32674747 6.97829344 -19.18699158 7.81278088 -22 9.9375 Z " fill="#F53231" transform="translate(474,116.0625)"/>
<path d="M0 0 C4.35923277 3.37950621 6.11215315 6.97707438 7.546875 12.19921875 C8.54836066 20.87730021 8.92898285 30.89140259 3.546875 38.19921875 C-0.22606889 42.25784246 -3.60244745 44.06356699 -9.18359375 44.47265625 C-23.73161957 44.94173651 -23.73161957 44.94173651 -29.0078125 40.75390625 C-35.20854541 34.08392868 -35.71213611 26.68018448 -35.60546875 17.9453125 C-35.24649363 11.47455581 -33.61170342 6.30832937 -29.453125 1.19921875 C-21.4393792 -4.61074695 -8.46953693 -5.15773082 0 0 Z M-26.453125 10.19921875 C-27.64416832 13.7723487 -27.65841323 16.74475197 -27.703125 20.51171875 C-27.72890625 21.80722656 -27.7546875 23.10273438 -27.78125 24.4375 C-27.43164962 28.44541869 -26.56991322 30.8053184 -24.453125 34.19921875 C-19.55310113 37.78460207 -14.31150053 38.03749037 -8.453125 37.19921875 C-4.46657363 35.38714994 -2.88965668 33.89766943 -0.578125 30.19921875 C1.4656552 24.52069174 1.7158934 17.66430919 -0.21484375 11.94140625 C-2.06169278 8.45210254 -3.80452746 6.56902094 -7.453125 5.19921875 C-15.21123975 4.24699536 -21.23491149 3.96635261 -26.453125 10.19921875 Z " fill="#10B666" transform="translate(263.453125,117.80078125)"/>
<path d="M0 0 C3.71266354 3.91200118 6 6.48368502 6 12 C3.69 12.66 1.38 13.32 -1 14 C-1.37125 13.071875 -1.7425 12.14375 -2.125 11.1875 C-4.39342593 7.33117593 -5.79352929 6.42861269 -10 5 C-15.30138354 4.23812452 -19.57803071 4.78402233 -24 8 C-28.43820019 14.06230677 -28.58370999 20.22723203 -28.4375 27.5 C-28.44813477 28.99080078 -28.44813477 28.99080078 -28.45898438 30.51171875 C-28.40569205 36.71822443 -27.51048341 41.32745734 -25 47 C-24.67 47.99 -24.34 48.98 -24 50 C-19.2348933 52.20822018 -15.14409191 52.40826126 -10 52 C-5.78714098 50.2212373 -4.06854607 48.02822129 -2 44 C0.31 44.33 2.62 44.66 5 45 C5.33 45.99 5.66 46.98 6 48 C4.99609375 49.90234375 4.99609375 49.90234375 3.4375 51.9375 C2.94121094 52.60652344 2.44492187 53.27554688 1.93359375 53.96484375 C-1.64510521 57.73151478 -4.6080589 59.79278084 -9.8046875 60.56640625 C-11.16116883 60.59446341 -12.51855688 60.5923472 -13.875 60.5625 C-14.93618042 60.54388916 -14.93618042 60.54388916 -16.01879883 60.52490234 C-20.86524356 60.31596052 -24.60544419 59.75203699 -28.45703125 56.7421875 C-37.73907048 46.26170776 -37.72228358 32.17243676 -37 19 C-36.22819293 11.16235358 -33.15378735 4.99994407 -27.4375 -0.4375 C-20.05087945 -5.17251317 -7.21480982 -4.80987322 0 0 Z " fill="#EA393A" transform="translate(425,102)"/>
<path d="M0 0 C1.2684375 -0.00773437 2.536875 -0.01546875 3.84375 -0.0234375 C9.69387339 0.61407595 13.70837057 2.92964136 17.5 7.375 C20.5 11.76785714 20.5 11.76785714 20.5 15.375 C18.19 16.035 15.88 16.695 13.5 17.375 C12.943125 16.446875 12.38625 15.51875 11.8125 14.5625 C9.42609432 11.27313 8.23558759 9.86923504 4.5 8.375 C-0.20665253 7.66900212 -3.5588127 7.92183574 -7.875 10 C-12.73975431 14.40144438 -13.97498647 18.96983489 -14.5 25.375 C-14.98210767 35.03221919 -15.15593049 45.7402562 -8.5 53.375 C-4.28061622 55.95104483 -0.31469377 55.92623506 4.5 55.375 C8.73699534 53.62493671 10.42751173 51.41089821 12.5 47.375 C15.47 47.87 15.47 47.87 18.5 48.375 C19.5 51.375 19.5 51.375 18.71484375 53.27734375 C18.29332031 53.94894531 17.87179688 54.62054688 17.4375 55.3125 C17.03402344 55.98152344 16.63054687 56.65054688 16.21484375 57.33984375 C12.87198849 61.30710478 9.81751779 63.1927188 4.66015625 63.90625 C3.29433262 63.92290236 1.92792969 63.91178628 0.5625 63.875 C-0.14680664 63.86364014 -0.85611328 63.85228027 -1.58691406 63.84057617 C-8.51719377 63.58185214 -11.69540596 62.01933152 -16.6875 57.3125 C-21.89089384 48.87941344 -23.14315761 40.57704229 -23 30.8125 C-23.01546875 29.75353516 -23.0309375 28.69457031 -23.046875 27.60351562 C-23.00546438 19.20233587 -21.48698366 12.06942716 -16.125 5.4375 C-10.85860475 1.29961802 -6.70146333 -0.04086258 0 0 Z " fill="#0CB865" transform="translate(197.5,98.625)"/>
<path d="M0 0 C7.26 0 14.52 0 22 0 C22 17.82 22 35.64 22 54 C26.62 54 31.24 54 36 54 C36 56.64 36 59.28 36 62 C24.12 62 12.24 62 0 62 C0 59.36 0 56.72 0 54 C4.62 54 9.24 54 14 54 C14 38.49 14 22.98 14 7 C9.38 7 4.76 7 0 7 C0 4.69 0 2.38 0 0 Z " fill="#F63534" transform="translate(552,100)"/>
<path d="M0 0 C7.26 0 14.52 0 22 0 C22 17.82 22 35.64 22 54 C26.95 54 31.9 54 37 54 C37 56.64 37 59.28 37 62 C31.89136104 62.0246501 26.78275641 62.04283607 21.67407227 62.05493164 C19.93480832 62.05997204 18.19554864 62.0668043 16.45629883 62.07543945 C13.96174063 62.08751792 11.46723827 62.09323108 8.97265625 62.09765625 C8.19036148 62.10281754 7.40806671 62.10797882 6.60206604 62.11329651 C4.73432886 62.11349226 2.86670796 62.06199694 1 62 C0.67 61.67 0.34 61.34 0 61 C0 58.69 0 56.38 0 54 C4.95 54 9.9 54 15 54 C15 38.49 15 22.98 15 7 C10.05 7 5.1 7 0 7 C0 4.69 0 2.38 0 0 Z " fill="#F43536" transform="translate(498,100)"/>
<path d="M0 0 C1.65 0 3.3 0 5 0 C5.33 20.13 5.66 40.26 6 61 C3.36 61 0.72 61 -2 61 C-2 60.01 -2 59.02 -2 58 C-2.78375 57.87625 -3.5675 57.7525 -4.375 57.625 C-7 57 -7 57 -9 55 C-8.360625 54.773125 -7.72125 54.54625 -7.0625 54.3125 C-4.74346259 53.16086307 -4.74346259 53.16086307 -4.3125 50.5 C-4.209375 49.675 -4.10625 48.85 -4 48 C-3.67 47.34 -3.34 46.68 -3 46 C-2.87536608 43.36239848 -2.81483427 40.7627283 -2.8125 38.125 C-2.80025391 37.40441406 -2.78800781 36.68382812 -2.77539062 35.94140625 C-2.76460908 32.03848611 -3.07517041 29.38208924 -5 26 C-4.625 22.75 -4.625 22.75 -4 20 C-3.01 19.67 -2.02 19.34 -1 19 C-0.67 12.73 -0.34 6.46 0 0 Z M-9 57 C-7 58 -7 58 -7 58 Z " fill="#04BC63" transform="translate(319,101)"/>
<path d="M0 0 C0.69996094 -0.020625 1.39992188 -0.04125 2.12109375 -0.0625 C7.16751871 -0.09995028 10.95512674 0.58337813 15.375 3.25 C20.43205776 8.64613717 21.13787731 14.10140391 20.9375 21.25 C20.94845703 22.10078125 20.95941406 22.9515625 20.97070312 23.828125 C20.89347172 30.54210814 19.25711267 35.737942 14.97094727 40.9609375 C12.34965306 43.07818293 9.60353392 42.4327472 6.375 42.25 C6.045 42.91 5.715 43.57 5.375 44.25 C-0.0639165 44.46755666 -4.49580814 44.35428384 -9.625 42.25 C-9.295 41.59 -8.965 40.93 -8.625 40.25 C-5.58952047 39.29599215 -3.65357781 39.24485599 -0.5 39.8125 C2.56580542 40.6092581 2.56580542 40.6092581 5.375 38.25 C7.36299818 37.54835358 9.36198517 36.87627128 11.375 36.25 C11.065625 35.445625 11.065625 35.445625 10.75 34.625 C10.375 32.25 10.375 32.25 11.3125 29.625 C13.10016453 23.9465362 13.33268361 17.98468785 11.125 12.375 C9.38315912 9.26456985 8.17825648 7.42510202 5.375 5.25 C1.93597596 4.84129617 1.93597596 4.84129617 -1.75 5.125 C-4.03942956 5.23447376 -6.33330723 5.29020514 -8.625 5.25 C-9.285 4.59 -9.945 3.93 -10.625 3.25 C-7.14349719 -0.23150281 -4.83621569 0.03448282 0 0 Z " fill="#F83333" transform="translate(677.625,116.75)"/>
<path d="M0 0 C4.909819 3.17092477 8.01841641 6.70662819 10.375 12.0625 C11.52844189 19.21383974 12.28645813 26.36458373 9 32.9375 C9 26.9975 9 21.0575 9 14.9375 C8.01 15.5975 7.02 16.2575 6 16.9375 C5.41518879 19.82345946 5.41518879 19.82345946 5.3125 23.0625 C5.24675781 24.15820312 5.18101562 25.25390625 5.11328125 26.3828125 C5.07589844 27.22585937 5.03851563 28.06890625 5 28.9375 C4.34 28.9375 3.68 28.9375 3 28.9375 C2.94392578 27.50857422 2.94392578 27.50857422 2.88671875 26.05078125 C2.82097656 24.79652344 2.75523437 23.54226562 2.6875 22.25 C2.62949219 21.00863281 2.57148438 19.76726562 2.51171875 18.48828125 C1.98253228 14.81629272 1.22400638 12.86938489 -1 9.9375 C-4.53424712 7.58133525 -6.18644102 7.6393772 -10.375 7.625 C-11.49648438 7.60824219 -12.61796875 7.59148437 -13.7734375 7.57421875 C-17.32147419 7.97369504 -19.17668827 8.7868907 -22 10.9375 C-24.08916928 15.42921395 -24.49533602 20.05908155 -25 24.9375 C-25.33 24.9375 -25.66 24.9375 -26 24.9375 C-26.33 21.9675 -26.66 18.9975 -27 15.9375 C-26.34 15.9375 -25.68 15.9375 -25 15.9375 C-24.67 13.2975 -24.34 10.6575 -24 7.9375 C-25.32 7.9375 -26.64 7.9375 -28 7.9375 C-28 9.5875 -28 11.2375 -28 12.9375 C-28.99 13.4325 -28.99 13.4325 -30 13.9375 C-30.33 19.8775 -30.66 25.8175 -31 31.9375 C-31.33 31.9375 -31.66 31.9375 -32 31.9375 C-32.10890711 28.93650412 -32.18773555 25.93953622 -32.25 22.9375 C-32.28351563 22.09832031 -32.31703125 21.25914062 -32.3515625 20.39453125 C-32.44512498 14.35975132 -31.43281361 9.96005673 -28 4.9375 C-26.18359375 3.09765625 -26.18359375 3.09765625 -24.4375 2 C-23.56931641 1.42958984 -23.56931641 1.42958984 -22.68359375 0.84765625 C-16.49913977 -2.49567966 -6.55445605 -2.40625301 0 0 Z " fill="#EB393A" transform="translate(474,116.0625)"/>
<path d="M0 0 C4.48086127 2.74318522 7.69923807 6.34771422 9.375 11.375 C9.375 15.335 9.375 19.295 9.375 23.375 C-2.175 23.375 -13.725 23.375 -25.625 23.375 C-25.625 23.045 -25.625 22.715 -25.625 22.375 C-14.405 22.375 -3.185 22.375 8.375 22.375 C7.715 19.735 7.055 17.095 6.375 14.375 C5.715 14.045 5.055 13.715 4.375 13.375 C4.045 14.365 3.715 15.355 3.375 16.375 C2.375 17.375 2.375 17.375 -0.49243164 17.48852539 C-1.74403076 17.48328857 -2.99562988 17.47805176 -4.28515625 17.47265625 C-5.28185585 17.47053383 -5.28185585 17.47053383 -6.2986908 17.46836853 C-8.42833899 17.46275518 -10.55788339 17.45020054 -12.6875 17.4375 C-14.12825369 17.43248671 -15.56900903 17.42792351 -17.00976562 17.42382812 C-20.54821102 17.41278145 -24.08659539 17.39550792 -27.625 17.375 C-28.25 15.5625 -28.25 15.5625 -28.625 13.375 C-27.965 12.385 -27.305 11.395 -26.625 10.375 C-27.285 9.715 -27.945 9.055 -28.625 8.375 C-30.605 9.365 -30.605 9.365 -32.625 10.375 C-31.22806939 5.48574285 -28.68512438 3.32058043 -24.625 0.375 C-17.70756867 -3.08371567 -7.08781141 -3.25253296 0 0 Z M-23.296875 8.74609375 C-25.6096774 11.35124477 -26.625 12.84663562 -26.625 16.375 C-17.385 16.375 -8.145 16.375 1.375 16.375 C1.81847629 11.6499049 1.81847629 11.6499049 0 9.1875 C-6.48508248 4.70970495 -16.86934487 3.47491834 -23.296875 8.74609375 Z " fill="#15B66A" transform="translate(368.625,116.625)"/>
<path d="M0 0 C6.93 0 13.86 0 21 0 C21 0.66 21 1.32 21 2 C21.7425 2.020625 22.485 2.04125 23.25 2.0625 C26.6597082 3.22490052 27.51327691 4.8709968 29.17956543 7.97146606 C30.52667855 11.30221879 30.4935446 14.59368772 30.390625 18.12109375 C30.38496521 18.86585464 30.37930542 19.61061554 30.37347412 20.37794495 C30.3512735 22.7318138 30.3011137 25.0840997 30.25 27.4375 C30.22991366 29.04359764 30.21166664 30.6497194 30.1953125 32.25585938 C30.15146309 36.1711729 30.08255471 40.0853191 30 44 C28.68 44 27.36 44 26 44 C25.67 42.68 25.34 41.36 25 40 C23.68 39.67 22.36 39.34 21 39 C21 38.01 21 37.02 21 36 C21.66 36 22.32 36 23 36 C23.33 34.68 23.66 33.36 24 32 C24.66 32 25.32 32 26 32 C25.67 29.03 25.34 26.06 25 23 C23.35 22.34 21.7 21.68 20 21 C20.495 20.46375 20.99 19.9275 21.5 19.375 C23.41127245 16.34881863 23.37478243 14.52295483 23 11 C20.9927092 7.9890638 20.16115776 7.36983503 17 6 C17 5.34 17 4.68 17 4 C14.54126232 4.14058476 12.08314825 4.28722999 9.625 4.4375 C8.92632813 4.47681641 8.22765625 4.51613281 7.5078125 4.55664062 C3.62639508 4.74280134 3.62639508 4.74280134 0 6 C-0.66 5.67 -1.32 5.34 -2 5 C-1.34 3.35 -0.68 1.7 0 0 Z " fill="#FD3130" transform="translate(613,117)"/>
<path d="M0 0 C2.55227651 3.07150755 3.88776704 5.98525624 5.1875 9.75 C5.53167969 10.73484375 5.87585938 11.7196875 6.23046875 12.734375 C6.48441406 13.48203125 6.73835938 14.2296875 7 15 C8.61737483 10.37892907 9.85248597 5.7539867 11 1 C12.32 1 13.64 1 15 1 C13.63053948 10.5141468 11.42755144 19.71402654 9 29 C6.21247054 25.69897827 4.850486 22.35424538 3.375 18.3125 C2.1822918 14.36914009 2.1822918 14.36914009 0 11 C-0.40992188 12.21558594 -0.81984375 13.43117187 -1.2421875 14.68359375 C-1.78607235 16.26836169 -2.33036426 17.85298997 -2.875 19.4375 C-3.14441406 20.23994141 -3.41382813 21.04238281 -3.69140625 21.86914062 C-3.95566406 22.63291016 -4.21992188 23.39667969 -4.4921875 24.18359375 C-4.73308105 24.89056396 -4.97397461 25.59753418 -5.22216797 26.32592773 C-6 28 -6 28 -8 29 C-10.42755144 19.71402654 -12.63053948 10.5141468 -14 1 C-12.68 1 -11.36 1 -10 1 C-9.01 5.29 -8.02 9.58 -7 14 C-4.52456753 10.69942337 -3.23883911 8.48799214 -1.8125 4.75 C-1.29623047 3.41195312 -1.29623047 3.41195312 -0.76953125 2.046875 C-0.51558594 1.37140625 -0.26164062 0.6959375 0 0 Z " fill="#F5BA60" transform="translate(453,184)"/>
<path d="M0 0 C4.16766995 2.35905846 7.24470675 4.91903577 8.93310547 9.59301758 C9.47865967 12.87441725 9.454929 16.13298707 9.4453125 19.44921875 C9.44626923 20.17365677 9.44722595 20.89809479 9.44821167 21.64448547 C9.44889033 23.16997363 9.447058 24.69546471 9.44287109 26.22094727 C9.437495 28.56468101 9.44283859 30.90822514 9.44921875 33.25195312 C9.44855837 34.73437542 9.44727804 36.21679761 9.4453125 37.69921875 C9.44733673 38.40334396 9.44936096 39.10746918 9.45144653 39.83293152 C9.42746776 44.76003224 9.42746776 44.76003224 8.3125 45.875 C6.31291636 45.91580783 4.31204746 45.91754356 2.3125 45.875 C1.9825 44.885 1.6525 43.895 1.3125 42.875 C0.10207031 43.61169922 0.10207031 43.61169922 -1.1328125 44.36328125 C-5.50353526 46.22203917 -8.8865735 46.21704333 -13.5625 46.0625 C-14.738125 46.04219727 -14.738125 46.04219727 -15.9375 46.02148438 C-17.85446782 45.98641789 -19.77107751 45.93262072 -21.6875 45.875 C-21.6875 45.545 -21.6875 45.215 -21.6875 44.875 C-20.62789062 44.84921875 -19.56828125 44.8234375 -18.4765625 44.796875 C-17.08849999 44.7406022 -15.70048075 44.68325467 -14.3125 44.625 C-13.61382813 44.61082031 -12.91515625 44.59664062 -12.1953125 44.58203125 C-9.91032354 44.51464218 -9.91032354 44.51464218 -6.6875 43.875 C-6.0275 42.555 -5.3675 41.235 -4.6875 39.875 C-8.3175 39.875 -11.9475 39.875 -15.6875 39.875 C-15.6875 39.545 -15.6875 39.215 -15.6875 38.875 C-15.04683594 38.77703125 -14.40617188 38.6790625 -13.74609375 38.578125 C-7.90282275 37.56796191 -3.65588601 36.11525175 1.3125 32.875 C0.9825 34.195 0.6525 35.515 0.3125 36.875 C-0.3475 36.875 -1.0075 36.875 -1.6875 36.875 C-1.3575 37.865 -1.0275 38.855 -0.6875 39.875 C0.9625 39.875 2.6125 39.875 4.3125 39.875 C3.9825 41.525 3.6525 43.175 3.3125 44.875 C4.6325 44.875 5.9525 44.875 7.3125 44.875 C7.26814147 40.16037689 7.19809716 35.44706698 7.10498047 30.7331543 C7.07688197 29.13202406 7.05561241 27.53075798 7.04150391 25.92944336 C7.0199183 23.61762504 6.97319442 21.30742086 6.921875 18.99609375 C6.92064636 18.28851425 6.91941772 17.58093475 6.91815186 16.85191345 C6.75996383 11.39535577 5.3399663 8.26820093 2.3125 3.875 C0.19908874 2.83974868 0.19908874 2.83974868 -1.6875 2.875 C-1.6875 2.215 -1.6875 1.555 -1.6875 0.875 C-2.739375 1.060625 -3.79125 1.24625 -4.875 1.4375 C-10.83323229 2.21045986 -16.73792262 1.46451605 -22.6875 0.875 C-23.3475 2.525 -24.0075 4.175 -24.6875 5.875 C-24.18734375 5.71128906 -23.6871875 5.54757813 -23.171875 5.37890625 C-19.7611532 4.6871089 -16.40014243 4.76995335 -12.9375 4.8125 C-12.24011719 4.81701172 -11.54273438 4.82152344 -10.82421875 4.82617188 C-9.11194197 4.8378998 -7.39970967 4.85583347 -5.6875 4.875 C-5.6875 5.535 -5.6875 6.195 -5.6875 6.875 C-6.821875 6.83375 -7.95625 6.7925 -9.125 6.75 C-13.77104073 6.75 -18.27364396 7.39150482 -22.6875 8.875 C-23.3475 9.535 -24.0075 10.195 -24.6875 10.875 C-27.70055957 10.48621812 -29.08435311 9.61043126 -31.6875 7.875 C-31.33545359 5.25979813 -30.99439341 4.1394433 -28.96484375 2.390625 C-20.28523175 -2.30419017 -9.47086602 -2.98323294 0 0 Z " fill="#E13D3D" transform="translate(635.6875,116.125)"/>
<path d="M0 0 C1.32 0.99 2.64 1.98 4 3 C3.67 3.78375 3.34 4.5675 3 5.375 C1.88133489 7.84332497 1.88133489 7.84332497 2 10 C11.9 10 21.8 10 32 10 C32.33 9.01 32.66 8.02 33 7 C34.32 7 35.64 7 37 7 C38.35439668 9.70879335 38.06501451 12.00933268 38 15 C36.89487061 15.01981934 35.78974121 15.03963867 34.65112305 15.06005859 C30.55274587 15.13610449 26.45472421 15.22482329 22.35668945 15.31738281 C20.58267229 15.35567679 18.80857736 15.39052895 17.03442383 15.421875 C14.48490601 15.46751672 11.9359237 15.52551185 9.38671875 15.5859375 C8.59287277 15.59748871 7.79902679 15.60903992 6.98112488 15.62094116 C3.15676092 15.72355385 1.25403901 15.83064066 -2 18 C-2.66 13.05 -3.32 8.1 -4 3 C-2.68 2.67 -1.36 2.34 0 2 C0 1.34 0 0.68 0 0 Z " fill="#04BC63" transform="translate(339,124)"/>
<path d="M0 0 C3.70231632 1.85115816 5.51767858 3.03535716 7.375 6.75 C7.58125 7.4925 7.7875 8.235 8 9 C5.12208578 8.60028969 3.35279138 8.28450918 1.0625 6.4375 C-1.84571529 4.41056207 -3.52676581 4.43294136 -7 5 C-10.02033737 6.93692369 -10.02033737 6.93692369 -12 10 C-12.63664952 14.03211364 -12.69818231 16.01737304 -10.3125 19.375 C-7.66289173 21.23688689 -6.24286253 21.92278899 -3 22 C0.0999475 20.74170298 0.0999475 20.74170298 3 19 C4.33333333 18.33333333 5.66666667 17.66666667 7 17 C7 21 7 21 4.375 23.6875 C1.29072973 26.02056627 -1.05089596 27 -5 27 C-10.19537508 25.38764222 -12.98499192 23.52251212 -16 19 C-17.58543507 15.82912985 -17.34065437 13.52009516 -17 10 C-13.45354162 2.12686239 -8.96645423 -1.39669768 0 0 Z " fill="#F3BE68" transform="translate(232,185)"/>
<path d="M0 0 C3 2.5 3 2.5 5 5 C4.67 5.66 4.34 6.32 4 7 C3.46375 6.690625 2.9275 6.38125 2.375 6.0625 C-0.42830524 4.80838976 -2.95305208 4.33118999 -6 4 C-6.99 4.495 -6.99 4.495 -8 5 C-8 6.32 -8 7.64 -8 9 C-6.86111328 9.36351562 -6.86111328 9.36351562 -5.69921875 9.734375 C-4.70535156 10.06953125 -3.71148437 10.4046875 -2.6875 10.75 C-1.70136719 11.07484375 -0.71523438 11.3996875 0.30078125 11.734375 C3.25723817 13.12061529 4.42841078 14.16465863 6 17 C5.8748361 20.0665156 5.62058202 22.13364293 3.81640625 24.65234375 C0.51091887 27.10480213 -3.2016462 26.51601616 -7.16796875 26.4296875 C-10 26 -10 26 -12.75 23.625 C-14 21 -14 21 -14 19 C-9.25 19.75 -9.25 19.75 -7 22 C-2.85490567 22.28602162 -2.85490567 22.28602162 1 21 C1.65213292 18.97536745 1.65213292 18.97536745 2 17 C1.25234375 16.82984375 0.5046875 16.6596875 -0.265625 16.484375 C-1.25046875 16.24203125 -2.2353125 15.9996875 -3.25 15.75 C-4.71179688 15.40195313 -4.71179688 15.40195313 -6.203125 15.046875 C-9.3675207 13.86243639 -10.8979882 12.62382269 -13 10 C-13.4375 6.9375 -13.4375 6.9375 -13 4 C-9.69792613 -0.35273373 -5.21445541 -0.93720613 0 0 Z " fill="#F5BE61" transform="translate(362,185)"/>
<path d="M0 0 C0.99 0 1.98 0 3 0 C3 9.24 3 18.48 3 28 C-10 28 -10 28 -13.375 25.375 C-15 22 -15 22 -15.0625 18.9375 C-13.78152785 15.39598876 -12.89461093 13.46041929 -10 11 C-6.95482159 10.5852257 -4.05269695 10.70647145 -1 11 C-1.01160156 10.28972656 -1.02320313 9.57945312 -1.03515625 8.84765625 C-1.04869141 7.46900391 -1.04869141 7.46900391 -1.0625 6.0625 C-1.07410156 5.14597656 -1.08570313 4.22945312 -1.09765625 3.28515625 C-1 1 -1 1 0 0 Z M-9 15 C-9.66 16.98 -10.32 18.96 -11 21 C-9.27144074 23.14567913 -9.27144074 23.14567913 -7 25 C-4.87092681 25.23901711 -4.87092681 25.23901711 -3 24 C-1.22851628 21.52066803 -1.22851628 21.52066803 0 19 C-1.08743288 16.88077873 -1.08743288 16.88077873 -3 15 C-6.12586875 14.66602213 -6.12586875 14.66602213 -9 15 Z " fill="#F3BD6A" transform="translate(276,183)"/>
<path d="M0 0 C3 2.5 3 2.5 5 5 C4.67 5.66 4.34 6.32 4 7 C3.484375 6.690625 2.96875 6.38125 2.4375 6.0625 C-0.66665423 4.70940713 -3.65115007 4.38640576 -7 4 C-7.33 5.65 -7.66 7.3 -8 9 C-7.24074219 9.25394531 -6.48148438 9.50789062 -5.69921875 9.76953125 C-4.70535156 10.11371094 -3.71148438 10.45789063 -2.6875 10.8125 C-1.20830078 11.31716797 -1.20830078 11.31716797 0.30078125 11.83203125 C2.90590197 12.9592832 4.3011105 13.75746587 6 16 C6.52640336 19.53442254 6.45822707 21.29356661 4.5 24.3125 C1.08726956 26.61609305 -1.91440824 27.08934694 -6 27 C-9.21615293 26.09108722 -10.64040128 25.35959872 -13 23 C-13 21.68 -13 20.36 -13 19 C-10.13275314 19.57344937 -9.1385485 19.8614515 -7 22 C-2.85490567 22.28602162 -2.85490567 22.28602162 1 21 C1 19.68 1 18.36 1 17 C0.32453125 16.82984375 -0.3509375 16.6596875 -1.046875 16.484375 C-10.54630552 13.90360486 -10.54630552 13.90360486 -13 10 C-13.5625 7 -13.5625 7 -13 4 C-9.42726799 -0.24261926 -5.29456197 -1.29161693 0 0 Z " fill="#F7B95C" transform="translate(575,185)"/>
<path d="M0 0 C0.33 0.66 0.66 1.32 1 2 C5.62 2 10.24 2 15 2 C15 3.98 15 5.96 15 8 C10.31860746 8.02465288 5.63725241 8.04283739 0.95581055 8.05493164 C-0.63794614 8.05997157 -2.23169819 8.0668035 -3.82543945 8.07543945 C-6.11150253 8.08751999 -8.39750467 8.09323155 -10.68359375 8.09765625 C-11.40026718 8.10281754 -12.11694061 8.10797882 -12.85533142 8.11329651 C-14.57063672 8.11349263 -16.28581266 8.06192007 -18 8 C-19 7 -19 7 -19.0625 4.4375 C-19.041875 3.633125 -19.02125 2.82875 -19 2 C-16.87506859 1.97306425 -14.75004088 1.95363372 -12.625 1.9375 C-11.44164062 1.92589844 -10.25828125 1.91429687 -9.0390625 1.90234375 C-6 2 -6 2 -4 3 C-4 2.34 -4 1.68 -4 1 C-2.68 0.67 -1.36 0.34 0 0 Z " fill="#FB3130" transform="translate(518,153)"/>
<path d="M0 0 C1.32 0.66 2.64 1.32 4 2 C4 2.66 4 3.32 4 4 C3.01 4.33 2.02 4.66 1 5 C0.855625 6.134375 0.71125 7.26875 0.5625 8.4375 C0 12 0 12 -1 13 C-1.15806531 14.92478813 -1.251135 16.8549921 -1.31640625 18.78515625 C-1.35830078 19.95498047 -1.40019531 21.12480469 -1.44335938 22.33007812 C-1.48267578 23.56177734 -1.52199219 24.79347656 -1.5625 26.0625 C-1.62727539 27.91584961 -1.62727539 27.91584961 -1.69335938 29.80664062 C-1.79984198 32.87097335 -1.90185424 35.93539073 -2 39 C-5 38 -5 38 -6.63671875 35.39453125 C-10.11929876 26.72300682 -9.63450226 16.8333311 -7 8 C-5.68 8.33 -4.36 8.66 -3 9 C-3.061875 8.071875 -3.12375 7.14375 -3.1875 6.1875 C-3 3 -3 3 -1.5 1.125 C-1.005 0.75375 -0.51 0.3825 0 0 Z " fill="#F93331" transform="translate(397,104)"/>
<path d="M0 0 C0.66 0.99 1.32 1.98 2 3 C1.35546875 3.70382813 0.7109375 4.40765625 0.046875 5.1328125 C-3.4250411 10.34068665 -2.68095608 16.84934849 -2.75 22.875 C-2.77964844 24.13570312 -2.80929688 25.39640625 -2.83984375 26.6953125 C-2.91033525 29.79693866 -2.96313741 32.89782197 -3 36 C-2.34 36 -1.68 36 -1 36 C-1 35.34 -1 34.68 -1 34 C-0.34 34 0.32 34 1 34 C1 26.74 1 19.48 1 12 C1.66 11.67 2.32 11.34 3 11 C2.97679687 12.17175781 2.95359375 13.34351562 2.9296875 14.55078125 C2.23184297 31.28250363 2.23184297 31.28250363 9 46 C9.66 46.66 10.32 47.32 11 48 C8.625 47.75 8.625 47.75 6 47 C4.6875 44.9375 4.6875 44.9375 4 43 C3.34 43 2.68 43 2 43 C1.58823246 46.60296594 1.8464147 47.78402067 4 50.8125 C4.66 51.534375 5.32 52.25625 6 53 C2.74122856 51.63408942 1.2085361 50.32304799 -0.625 47.3125 C-1.23214844 46.34763672 -1.23214844 46.34763672 -1.8515625 45.36328125 C-5.31201323 38.2422857 -5.36575875 31.49173504 -5.375 23.6875 C-5.41173828 22.07198242 -5.41173828 22.07198242 -5.44921875 20.42382812 C-5.47551312 13.18849521 -4.36282814 7.44584844 -1 1 C-0.67 0.67 -0.34 0.34 0 0 Z " fill="#16B367" transform="translate(180,106)"/>
<path d="M0 0 C2.81703043 2.40478207 3.82644883 3.84299218 4.375 7.5 C3.95433309 10.30444608 3.29660242 12.4750374 2 15 C-1.69744096 17.46496064 -4.71032516 17.66459751 -9 17 C-11.5 15.5625 -11.5 15.5625 -13 13 C-13.75551032 8.71090495 -13.71240656 5.26994213 -11.5625 1.4375 C-7.74356039 -0.70483198 -4.27003048 -0.90885052 0 0 Z M-9 5 C-9 5.66 -9 6.32 -9 7 C-6.03 7 -3.06 7 0 7 C-1.29467677 4.94009522 -1.29467677 4.94009522 -3 3 C-6.18490007 2.7226499 -6.18490007 2.7226499 -9 5 Z M-9 10 C-8.67 10.99 -8.34 11.98 -8 13 C-6.13803054 13.92393164 -6.13803054 13.92393164 -4 14 C-3.01 13.34 -2.02 12.68 -1 12 C-1 11.34 -1 10.68 -1 10 C-3.64 10 -6.28 10 -9 10 Z " fill="#F8BD63" transform="translate(296,194)"/>
<path d="M0 0 C1.32 0 2.64 0 4 0 C4.33 4.95 4.66 9.9 5 15 C5.99 13.68 6.98 12.36 8 11 C10.6875 10.75 10.6875 10.75 13 11 C12.54625 11.7425 12.0925 12.485 11.625 13.25 C10.31359204 15.46930578 9.11719197 17.67967822 8 20 C8.825 20.94875 9.65 21.8975 10.5 22.875 C13 25.75 13 25.75 13 28 C10.6875 28.25 10.6875 28.25 8 28 C6.1875 26 6.1875 26 5 24 C4.67 25.32 4.34 26.64 4 28 C2.68 28 1.36 28 0 28 C0 18.76 0 9.52 0 0 Z " fill="#EEBD6F" transform="translate(501,183)"/>
<path d="M0 0 C2.64 0 5.28 0 8 0 C8 20.13 8 40.26 8 61 C7.67 61 7.34 61 7 61 C7 41.2 7 21.4 7 1 C5.35 1 3.7 1 2 1 C2.04640625 2.16917969 2.0928125 3.33835937 2.140625 4.54296875 C2.17815594 6.0911202 2.21455469 7.63929939 2.25 9.1875 C2.30027344 10.34088867 2.30027344 10.34088867 2.3515625 11.51757812 C2.42000453 15.50432656 2.36245213 17.45107972 0.109375 20.86328125 C-0.58671875 21.56839844 -1.2828125 22.27351563 -2 23 C-2.66 23.99 -3.32 24.98 -4 26 C-4.99 25.34 -5.98 24.68 -7 24 C-8.9896995 23.60986284 -10.99019869 23.26797351 -13 23 C-13 22.34 -13 21.68 -13 21 C-12.030625 20.71125 -11.06125 20.4225 -10.0625 20.125 C-6.89335797 19.35785318 -6.89335797 19.35785318 -6 17 C-11.94 17 -17.88 17 -24 17 C-20.379532 14.58635467 -18.55590412 14.70136021 -14.25 14.6875 C-13.05890625 14.67074219 -11.8678125 14.65398437 -10.640625 14.63671875 C-7 15 -7 15 0 18 C0 12.06 0 6.12 0 0 Z " fill="#1FA969" transform="translate(317,100)"/>
<path d="M0 0 C1.31226563 -0.00515625 2.62453125 -0.0103125 3.9765625 -0.015625 C7.375 0.25 7.375 0.25 10.375 2.25 C9.24320312 2.28738281 8.11140625 2.32476562 6.9453125 2.36328125 C5.46350795 2.42893082 3.98173861 2.49537851 2.5 2.5625 C1.38044922 2.59633789 1.38044922 2.59633789 0.23828125 2.63085938 C-1.724604 2.72811945 -3.67828322 2.98042294 -5.625 3.25 C-6.615 4.735 -6.615 4.735 -7.625 6.25 C-3.335 6.25 0.955 6.25 5.375 6.25 C5.375 6.91 5.375 7.57 5.375 8.25 C4.16263672 8.30607422 4.16263672 8.30607422 2.92578125 8.36328125 C1.85714844 8.42902344 0.78851563 8.49476562 -0.3125 8.5625 C-1.36824219 8.62050781 -2.42398437 8.67851563 -3.51171875 8.73828125 C-7.00256046 9.31205824 -8.86346103 10.04359152 -11.625 12.25 C-12.615 14.23 -13.605 16.21 -14.625 18.25 C-5.385 18.25 3.855 18.25 13.375 18.25 C13.375 16.6 13.375 14.95 13.375 13.25 C13.705 13.25 14.035 13.25 14.375 13.25 C14.375 15.23 14.375 17.21 14.375 19.25 C4.475 19.25 -5.425 19.25 -15.625 19.25 C-15.955 17.93 -16.285 16.61 -16.625 15.25 C-15.965 14.26 -15.305 13.27 -14.625 12.25 C-15.285 11.59 -15.945 10.93 -16.625 10.25 C-18.605 11.24 -18.605 11.24 -20.625 12.25 C-19.22806939 7.36074285 -16.68512438 5.19558043 -12.625 2.25 C-8.3841397 0.09603053 -4.72197777 -0.01862713 0 0 Z " fill="#1BB06A" transform="translate(356.625,114.75)"/>
<path d="M0 0 C0.12375 0.639375 0.2475 1.27875 0.375 1.9375 C0.58125 2.618125 0.7875 3.29875 1 4 C1.66 4.33 2.32 4.66 3 5 C2.21625 5.556875 1.4325 6.11375 0.625 6.6875 C-2.12103087 9.10662244 -2.81581296 10.62962151 -4 14 C-4.99 14.495 -4.99 14.495 -6 15 C-6.33 22.26 -6.66 29.52 -7 37 C-7.66 37 -8.32 37 -9 37 C-9 37.66 -9 38.32 -9 39 C-9.66 39 -10.32 39 -11 39 C-11.05815112 34.60422239 -11.09364767 30.20854402 -11.125 25.8125 C-11.14175781 24.56662109 -11.15851563 23.32074219 -11.17578125 22.03710938 C-11.18222656 20.83505859 -11.18867188 19.63300781 -11.1953125 18.39453125 C-11.20578613 17.28956299 -11.21625977 16.18459473 -11.22705078 15.04614258 C-10.91086454 10.80414723 -10.02002548 8.02002548 -7 5 C-6.855625 4.319375 -6.71125 3.63875 -6.5625 2.9375 C-6.376875 2.298125 -6.19125 1.65875 -6 1 C-3 0 -3 0 0 0 Z " fill="#03BD61" transform="translate(188,103)"/>
<path d="M0 0 C2.31 0.66 4.62 1.32 7 2 C6.74981927 5.37743989 5.74280087 6.25135369 3.25 8.6875 C-1.91929255 12.36565047 -6.92623502 12.20483596 -13.125 12.25 C-13.84042969 12.270625 -14.55585938 12.29125 -15.29296875 12.3125 C-20.53769693 12.35171292 -20.53769693 12.35171292 -22.9921875 10.484375 C-23.49105469 9.74960938 -23.49105469 9.74960938 -24 9 C-23.67 8.01 -23.34 7.02 -23 6 C-20.23723823 6.52268466 -17.6739124 7.10869587 -15 8 C-12.6593935 7.72230092 -10.32375692 7.39460023 -8 7 C-8 6.34 -8 5.68 -8 5 C-7.05125 4.54625 -6.1025 4.0925 -5.125 3.625 C-1.99686321 2.19761746 -1.99686321 2.19761746 0 0 Z " fill="#0ABA63" transform="translate(370,149)"/>
<path d="M0 0 C3.11218503 0.0594685 4.48716787 0.20011856 7.25 1.75 C9.4020847 5.58632489 9.43581272 9.01954811 8.6875 13.3125 C7.25 15.875 7.25 15.875 4.6875 17.3125 C1.55720499 17.9098407 -1.18954162 17.97842495 -4.3125 17.3125 C-6.97802415 14.98016636 -7.98386703 13.11354286 -9.3125 9.875 C-9.3125 3.89141575 -5.56126505 0.17293623 0 0 Z M-3 4.5 C-4.4885735 6.29093299 -4.4885735 6.29093299 -4.8125 8.8125 C-4.53743707 11.52049476 -4.53743707 11.52049476 -2.0625 13.25 C0.56617962 14.55753602 0.56617962 14.55753602 2.9375 13.8125 C4.86452205 12.3870356 4.86452205 12.3870356 5.6875 9.9375 C5.95150617 7.17802747 5.95150617 7.17802747 3.9375 5 C1.27131831 3.00036373 -0.17161509 2.50965506 -3 4.5 Z " fill="#F5BD5F" transform="translate(250.3125,193.6875)"/>
<path d="M0 0 C2.6483191 2.11865528 3.73807669 3.62217425 4.375 6.97265625 C4.57348726 10.29111514 4.21962523 12.61804309 2.5625 15.5 C-1.25682396 17.73570183 -4.68518361 17.76004105 -9 17 C-11.5625 15.5 -11.5625 15.5 -13 13 C-13.70476018 8.06667872 -13.77041398 6.15562097 -11 2 C-6.82471182 -0.78352545 -4.95378117 -0.78631447 0 0 Z M-5 3 C-6.65 4.65 -8.3 6.3 -10 8 C-8.18463412 11.63286257 -8.18463412 11.63286257 -5.0625 14.0625 C-2.8105395 14.18346027 -2.8105395 14.18346027 -0.6875 12.375 C1.24191684 10.1286975 1.24191684 10.1286975 1.0625 7.375 C0.19000463 4.75967367 0.19000463 4.75967367 -2.5625 3.6875 C-3.7690625 3.3471875 -3.7690625 3.3471875 -5 3 Z " fill="#F7BC54" transform="translate(482,194)"/>
<path d="M0 0 C2.3125 0.125 2.3125 0.125 5 1 C6.8125 4.0625 6.8125 4.0625 8 7 C9.89213369 4.61426621 11.02391783 2.92824652 12 0 C13.65 0 15.3 0 17 0 C13.60053977 8.78369848 9.80443073 17.38659784 6 26 C4.35 26 2.7 26 1 26 C1.30035156 25.34773438 1.60070312 24.69546875 1.91015625 24.0234375 C4.98534706 17.20402844 4.98534706 17.20402844 4 10 C3.00204191 7.87583217 1.9623191 5.79557528 0.83984375 3.734375 C0 2 0 2 0 0 Z " fill="#F7BD5F" transform="translate(368,194)"/>
<path d="M0 0 C2.25 0.0625 2.25 0.0625 5 1 C6.67849824 3.2308475 7.75999263 5.47405906 9 8 C10.32 5.36 11.64 2.72 13 0 C13.99 0 14.98 0 16 0 C15.45080664 6.01117092 12.95138069 10.97766352 10.4375 16.375 C9.80038086 17.76525391 9.80038086 17.76525391 9.15039062 19.18359375 C8.10663024 21.45875685 7.05636818 23.73067035 6 26 C4.68 26 3.36 26 2 26 C2.37910109 23.57375301 2.75829995 21.44145216 3.9453125 19.2734375 C5.09964632 17.06475153 5.74886243 15.49463321 6 13 C4.76103385 9.86015428 3.2176734 7.1728245 1.41796875 4.3203125 C0 2 0 2 0 0 Z " fill="#F6BB5A" transform="translate(581,194)"/>
<path d="M0 0 C1.93875 -0.020625 3.8775 -0.04125 5.875 -0.0625 C6.96554687 -0.07410156 8.05609375 -0.08570313 9.1796875 -0.09765625 C12 0 12 0 14 1 C15.14077657 4.42232972 15.09815117 7.08673217 15.0625 10.6875 C15.05347656 11.86699219 15.04445313 13.04648438 15.03515625 14.26171875 C15.02355469 15.16535156 15.01195312 16.06898438 15 17 C13.68 17 12.36 17 11 17 C11 12.71 11 8.42 11 4 C9.35 4.33 7.7 4.66 6 5 C4.78306124 7.43387753 4.68040104 9.41838846 4.4375 12.125 C4.35371094 13.03507813 4.26992188 13.94515625 4.18359375 14.8828125 C4.12300781 15.58148438 4.06242187 16.28015625 4 17 C2.68 17 1.36 17 0 17 C0 11.39 0 5.78 0 0 Z " fill="#F7C05E" transform="translate(321,194)"/>
<path d="M0 0 C2.5 1.8125 2.5 1.8125 4 4 C4 4.99 4 5.98 4 7 C2.68 7 1.36 7 0 7 C-0.33 6.34 -0.66 5.68 -1 5 C-2.99954746 4.95745644 -5.00041636 4.95919217 -7 5 C-8.29633621 6.06645115 -8.29633621 6.06645115 -8.0625 8.5625 C-8.041875 9.366875 -8.02125 10.17125 -8 11 C-5.73398135 12.29042763 -5.73398135 12.29042763 -3 13 C-0.86655232 11.6083124 -0.86655232 11.6083124 1 10 C1.99 10.33 2.98 10.66 4 11 C3.4375 13.375 3.4375 13.375 2 16 C-2.05110617 17.86974131 -4.05524786 18.32085922 -8.3125 16.875 C-12.21126761 14.15492958 -12.21126761 14.15492958 -13 11 C-12.86470518 7.21174497 -12.49240979 4.76815927 -10.4375 1.5625 C-6.97790819 -0.65518706 -4.00109177 -0.82809481 0 0 Z " fill="#F7B858" transform="translate(416,194)"/>
<path d="M0 0 C2.5 1.8125 2.5 1.8125 4 4 C4 4.99 4 5.98 4 7 C1.74997704 6.51785222 -0.03125535 5.98295163 -2.0625 4.875 C-4.14419719 3.67102899 -4.14419719 3.67102899 -7 5 C-8.17755913 7.94389782 -8.03348696 8.89953913 -7 12 C-5.1935345 13.0146239 -5.1935345 13.0146239 -3 13 C-1.65210653 12.01971384 -0.31787285 11.02028865 1 10 C1.99 10.33 2.98 10.66 4 11 C3.4375 13.375 3.4375 13.375 2 16 C-2.05110617 17.86974131 -4.05524786 18.32085922 -8.3125 16.875 C-12.21126761 14.15492958 -12.21126761 14.15492958 -13 11 C-12.86470518 7.21174497 -12.49240979 4.76815927 -10.4375 1.5625 C-6.97790819 -0.65518706 -4.00109177 -0.82809481 0 0 Z " fill="#F7BF5D" transform="translate(629,194)"/>
<path d="M0 0 C10.625 -0.25 10.625 -0.25 14 2 C15.60116168 6.80348505 15.6117046 12.1648862 14 17 C13.01 17 12.02 17 11 17 C10.95101563 16.14535156 10.90203125 15.29070312 10.8515625 14.41015625 C10.77679688 13.30542969 10.70203125 12.20070312 10.625 11.0625 C10.55539062 9.96035156 10.48578125 8.85820312 10.4140625 7.72265625 C10.27742188 6.82417969 10.14078125 5.92570313 10 5 C9.34 4.67 8.68 4.34 8 4 C4.7882039 5.63778399 4.7882039 5.63778399 4.48828125 8.3828125 C4.43027344 9.28773438 4.37226563 10.19265625 4.3125 11.125 C4.24675781 12.03507813 4.18101562 12.94515625 4.11328125 13.8828125 C4.07589844 14.58148438 4.03851563 15.28015625 4 16 C2.68 16.33 1.36 16.66 0 17 C0 11.39 0 5.78 0 0 Z " fill="#F8C358" transform="translate(386,194)"/>
<path d="M0 0 C0.99 0.33 1.98 0.66 3 1 C3 5.95 3 10.9 3 16 C3.66 16 4.32 16 5 16 C5.28875 16.7425 5.5775 17.485 5.875 18.25 C6.82302644 20.56739797 7.84845911 22.77917115 9 25 C7.576875 25.0928125 7.576875 25.0928125 6.125 25.1875 C5.09375 25.455625 4.0625 25.72375 3 26 C1.54708727 28.46255685 1.54708727 28.46255685 1 31 C0.34 31 -0.32 31 -1 31 C-1.02469575 26.90658501 -1.04285793 22.81319879 -1.05493164 18.71972656 C-1.0599643 17.32681523 -1.06679098 15.9339092 -1.07543945 14.54101562 C-1.08755152 12.54038754 -1.09270412 10.53972112 -1.09765625 8.5390625 C-1.10289307 7.33459473 -1.10812988 6.13012695 -1.11352539 4.88916016 C-1 2 -1 2 0 0 Z " fill="#FD3130" transform="translate(658,130)"/>
<path d="M0 0 C1.77007714 -0.08114106 3.54122098 -0.13925505 5.3125 -0.1875 C6.29863281 -0.22230469 7.28476562 -0.25710937 8.30078125 -0.29296875 C11 0 11 0 12.84375 1.0625 C14.63736487 4.06801682 14.28253857 6.73443178 14.1875 10.1875 C14.16042969 11.45980469 14.13335938 12.73210937 14.10546875 14.04296875 C14.07066406 15.01878906 14.03585937 15.99460938 14 17 C13.01 17 12.02 17 11 17 C10.11893802 13.25548659 10 9.83487501 10 6 C9.67 5.34 9.34 4.68 9 4 C7.68 4.33 6.36 4.66 5 5 C4.12132271 8.73437848 3.91087781 12.16774573 4 16 C2.68 16.33 1.36 16.66 0 17 C-0.19561869 14.9174133 -0.38119313 12.83388144 -0.5625 10.75 C-0.66691406 9.58984375 -0.77132812 8.4296875 -0.87890625 7.234375 C-0.98198087 4.48128523 -0.86213473 2.580018 0 0 Z " fill="#FBC04F" transform="translate(535,194)"/>
<path d="M0 0 C1.918125 -0.0825 3.83625 -0.165 5.8125 -0.25 C7.43091797 -0.31960937 7.43091797 -0.31960937 9.08203125 -0.390625 C12 0 12 0 13.90625 1.59375 C15.39357685 4.86586908 15.07818476 7.19832039 14.6875 10.75 C14.50767578 12.50570312 14.50767578 12.50570312 14.32421875 14.296875 C14.21722656 15.18890625 14.11023438 16.0809375 14 17 C13.01 17 12.02 17 11 17 C10.67 13.04 10.34 9.08 10 5 C8.68 5 7.36 5 6 5 C3.89176904 8.42587531 3.91385344 11.0372584 4 15 C3.67 15.66 3.34 16.32 3 17 C2.01 17 1.02 17 0 17 C0 11.39 0 5.78 0 0 Z " fill="#F8BF52" transform="translate(599,194)"/>
<path d="M0 0 C1.32 0 2.64 0 4 0 C3.125 7.625 3.125 7.625 2 11 C2.35545947 13.29396984 2.35545947 13.29396984 3 15.75 C3.98999563 20.25118011 3.97436227 23.51793357 3 28 C1.68 28 0.36 28 -1 28 C-2.66674321 25.08175756 -3.2432008 23.02405621 -3.1953125 19.671875 C-3.18886719 18.87265625 -3.18242187 18.0734375 -3.17578125 17.25 C-3.15902344 16.425 -3.14226562 15.6 -3.125 14.75 C-3.11597656 13.90953125 -3.10695313 13.0690625 -3.09765625 12.203125 C-3.07415817 10.13529396 -3.03828908 8.06761005 -3 6 C-2.01 5.67 -1.02 5.34 0 5 C0 3.35 0 1.7 0 0 Z " fill="#FB3130" transform="translate(446,124)"/>
<path d="M0 0 C1.25280566 2.50561133 1.08308538 4.14623298 1.02734375 6.9453125 C1.01509766 7.94046875 1.00285156 8.935625 0.99023438 9.9609375 C0.95546748 12.04695102 0.9165021 14.13289939 0.87304688 16.21875 C0.80767095 22.20256968 1.24788001 27.26953697 3 33 C1.02 33.495 1.02 33.495 -1 34 C-1 35.32 -1 36.64 -1 38 C-0.01 38 0.98 38 2 38 C2.33 39.65 2.66 41.3 3 43 C-1.74003258 41.15441285 -2.84361419 38.12769761 -4.89453125 33.69140625 C-8.6176994 24.62687319 -8.21290542 15.63988413 -8 6 C-7.67 6 -7.34 6 -7 6 C-6.95101563 6.97582031 -6.90203125 7.95164062 -6.8515625 8.95703125 C-6.77679688 10.22933594 -6.70203125 11.50164062 -6.625 12.8125 C-6.55539062 14.07707031 -6.48578125 15.34164062 -6.4140625 16.64453125 C-6.23897061 20.12755234 -6.23897061 20.12755234 -4 23 C-4 23.99 -4 24.98 -4 26 C-3.34 26 -2.68 26 -2 26 C-1.97494385 25.2479126 -1.9498877 24.4958252 -1.92407227 23.72094727 C-1.80849486 20.33460804 -1.68559655 16.94857387 -1.5625 13.5625 C-1.52318359 12.37849609 -1.48386719 11.19449219 -1.44335938 9.97460938 C-1.40146484 8.84990234 -1.35957031 7.72519531 -1.31640625 6.56640625 C-1.27974854 5.52427979 -1.24309082 4.48215332 -1.20532227 3.40844727 C-1 1 -1 1 0 0 Z " fill="#E73B3B" transform="translate(396,116)"/>
<path d="M0 0 C0.99 0.33 1.98 0.66 3 1 C2.67 7.93 2.34 14.86 2 22 C0.68 22.33 -0.64 22.66 -2 23 C-2 22.01 -2 21.02 -2 20 C-2.66 20 -3.32 20 -4 20 C-5.96150176 16.07699647 -5.35012816 11.28605156 -5 7 C-2.89361702 1.44680851 -2.89361702 1.44680851 0 0 Z " fill="#05BC63" transform="translate(233,126)"/>
<path d="M0 0 C2 2 2 2 3.375 4.5 C5.16776126 7.25809425 6.01978041 7.80154871 9 9 C11.35564596 9.44811137 11.35564596 9.44811137 13.75 9.625 C14.54921875 9.69976562 15.3484375 9.77453125 16.171875 9.8515625 C16.77515625 9.90054688 17.3784375 9.94953125 18 10 C18 10.99 18 11.98 18 13 C15.03 12.34 12.06 11.68 9 11 C9.66 12.98 10.32 14.96 11 17 C7.30260672 17.35213269 5.27973042 17.1427196 1.9375 15.4375 C-1.32086572 12.73374972 -4.19047328 9.88012943 -6 6 C-5.67 5.01 -5.34 4.02 -5 3 C-4.34 4.32 -3.68 5.64 -3 7 C-2.34 7 -1.68 7 -1 7 C-0.67 4.69 -0.34 2.38 0 0 Z " fill="#E83C3E" transform="translate(449,145)"/>
<path d="M0 0 C2.97 0.495 2.97 0.495 6 1 C7 4 7 4 6.21484375 5.90234375 C5.79332031 6.57394531 5.37179688 7.24554688 4.9375 7.9375 C4.53402344 8.60652344 4.13054687 9.27554688 3.71484375 9.96484375 C0.31957898 13.99430376 -2.68633952 15.84652284 -7.9453125 16.4609375 C-9.33881389 16.45306461 -10.73234136 16.42409186 -12.125 16.375 C-12.82753906 16.37371094 -13.53007812 16.37242187 -14.25390625 16.37109375 C-17.97222467 16.30783313 -20.84313024 16.04460477 -24 14 C-23.34 13.67 -22.68 13.34 -22 13 C-21.01 13.33 -20.02 13.66 -19 14 C-16.64738643 14.09511161 -14.29203033 14.12986976 -11.9375 14.125 C-10.68839844 14.12757813 -9.43929687 14.13015625 -8.15234375 14.1328125 C-5.09799287 14.21948276 -5.09799287 14.21948276 -3 13 C-3 12.34 -3 11.68 -3 11 C-4.65 10.34 -6.3 9.68 -8 9 C-7.236875 8.443125 -6.47375 7.88625 -5.6875 7.3125 C-3.03859112 5.03320631 -1.61711178 3.06400128 0 0 Z " fill="#13B569" transform="translate(210,146)"/>
<path d="M0 0 C0.66 0 1.32 0 2 0 C2.75277515 2.73249341 3.16641703 5.28100683 3.31640625 8.109375 C3.35830078 8.86347656 3.40019531 9.61757812 3.44335938 10.39453125 C3.48267578 11.17183594 3.52199219 11.94914063 3.5625 12.75 C3.60568359 13.54277344 3.64886719 14.33554688 3.69335938 15.15234375 C3.79902991 17.10137815 3.89997966 19.05066748 4 21 C4.99 21 5.98 21 7 21 C7.12375 21.804375 7.2475 22.60875 7.375 23.4375 C7.58125 24.283125 7.7875 25.12875 8 26 C8.66 26.33 9.32 26.66 10 27 C8.02 27.33 6.04 27.66 4 28 C4 27.01 4 26.02 4 25 C3.01 24.67 2.02 24.34 1 24 C-0.88125848 21.14463723 -1.24852435 18.86609404 -1.23046875 15.48828125 C-1.22853516 14.64845703 -1.22660156 13.80863281 -1.22460938 12.94335938 C-1.21236328 12.07517578 -1.20011719 11.20699219 -1.1875 10.3125 C-1.18685547 9.43271484 -1.18621094 8.55292969 -1.18554688 7.64648438 C-1.14040057 1.14040057 -1.14040057 1.14040057 0 0 Z " fill="#01BE63" transform="translate(284,128)"/>
<path d="M0 0 C0.83144531 0.02255859 1.66289062 0.04511719 2.51953125 0.06835938 C4.55547353 0.12686346 6.59047945 0.21653205 8.625 0.3125 C8.295 1.3025 7.965 2.2925 7.625 3.3125 C5.645 3.6425 3.665 3.9725 1.625 4.3125 C1.625 4.9725 1.625 5.6325 1.625 6.3125 C-3.325 6.9725 -8.275 7.6325 -13.375 8.3125 C-14.035 7.3225 -14.695 6.3325 -15.375 5.3125 C-10.37637527 0.17637265 -7.01970733 -0.36386043 0 0 Z " fill="#05BC61" transform="translate(302.375,116.6875)"/>
<path d="M0 0 C0.84884766 0.2165625 0.84884766 0.2165625 1.71484375 0.4375 C9.43560568 2.33799524 17.07082423 3.42716981 25 4 C24.67 5.65 24.34 7.3 24 9 C18.72 9 13.44 9 8 9 C8 8.34 8 7.68 8 7 C6.68 7 5.36 7 4 7 C4 6.01 4 5.02 4 4 C2.68 3.67 1.36 3.34 0 3 C0 2.01 0 1.02 0 0 Z " fill="#FB322F" transform="translate(606,152)"/>
<path d="M0 0 C1.31613281 -0.00257812 2.63226563 -0.00515625 3.98828125 -0.0078125 C7.06276242 0.10257014 9.74033128 0.27043063 12.6875 1.125 C14.4816758 3.68810828 14.6875 4.95619306 14.6875 8.125 C15.3475 8.125 16.0075 8.125 16.6875 8.125 C16.6875 9.445 16.6875 10.765 16.6875 12.125 C16.0275 12.125 15.3675 12.125 14.6875 12.125 C14.3575 12.785 14.0275 13.445 13.6875 14.125 C13.3575 13.465 13.0275 12.805 12.6875 12.125 C13.0175 11.465 13.3475 10.805 13.6875 10.125 C12.3675 9.795 11.0475 9.465 9.6875 9.125 C10.0175 7.805 10.3475 6.485 10.6875 5.125 C8.89892578 5.06892578 8.89892578 5.06892578 7.07421875 5.01171875 C5.507781 4.94605968 3.94137616 4.87961232 2.375 4.8125 C1.19647461 4.77866211 1.19647461 4.77866211 -0.00585938 4.74414062 C-1.1418457 4.6909668 -1.1418457 4.6909668 -2.30078125 4.63671875 C-2.99727783 4.61053467 -3.69377441 4.58435059 -4.41137695 4.55737305 C-6.80600359 4.01276232 -7.74522547 2.96670838 -9.3125 1.125 C-6.32476752 -0.36886624 -3.2721842 -0.01871602 0 0 Z " fill="#02BE61" transform="translate(251.3125,116.875)"/>
<path d="M0 0 C7.26 0 14.52 0 22 0 C22 17.82 22 35.64 22 54 C21.67 54 21.34 54 21 54 C21 36.51 21 19.02 21 1 C17.37 1 13.74 1 10 1 C9.67 1.99 9.34 2.98 9 4 C6.69 4 4.38 4 2 4 C2 4.99 2 5.98 2 7 C1.34 7 0.68 7 0 7 C0 4.69 0 2.38 0 0 Z " fill="#E63D3D" transform="translate(552,100)"/>
<path d="M0 0 C2.625 -0.1875 2.625 -0.1875 5 0 C4.54625 0.7425 4.0925 1.485 3.625 2.25 C2.31359204 4.46930578 1.11719197 6.67967822 0 9 C0.825 9.94875 1.65 10.8975 2.5 11.875 C5 14.75 5 14.75 5 17 C2.75 17.25 2.75 17.25 0 17 C-2.1875 15.0625 -2.1875 15.0625 -4 13 C-4.66 12.67 -5.32 12.34 -6 12 C-6 9.69 -6 7.38 -6 5 C-5.38125 4.731875 -4.7625 4.46375 -4.125 4.1875 C-1.7004767 3.04443152 -1.7004767 3.04443152 0 0 Z " fill="#FBBB52" transform="translate(509,194)"/>
<path d="M0 0 C0.66 0 1.32 0 2 0 C2.99019981 28.53298832 2.99019981 28.53298832 -6.6328125 40.57421875 C-8 42 -8 42 -10 43 C-10.33 40.69 -10.66 38.38 -11 36 C-10.34 36 -9.68 36 -9 36 C-9 36.66 -9 37.32 -9 38 C-8.01 38 -7.02 38 -6 38 C-6.2475 37.4225 -6.495 36.845 -6.75 36.25 C-6.8325 35.5075 -6.915 34.765 -7 34 C-5.68945377 32.64426252 -4.35251497 31.31387169 -3 30 C-0.29258869 24.18051092 -0.55297351 17.92081308 -0.375 11.625 C-0.33632812 10.50738281 -0.29765625 9.38976562 -0.2578125 8.23828125 C-0.16393445 5.49234839 -0.07825089 2.74641524 0 0 Z " fill="#D9831E" transform="translate(127,174)"/>
<path d="M0 0 C0.33 0 0.66 0 1 0 C1.66 1.98 2.32 3.96 3 6 C3.66 5.67 4.32 5.34 5 5 C4.67 4.01 4.34 3.02 4 2 C5.32 1.67 6.64 1.34 8 1 C8.020625 2.093125 8.04125 3.18625 8.0625 4.3125 C8.56114043 7.95732337 8.56114043 7.95732337 10.625 9.1328125 C12.78223035 10.06424734 12.78223035 10.06424734 16 11 C16 11.33 16 11.66 16 12 C11.12335991 12.34833144 8.22949995 11.41685712 4 9 C4 9.99 4 10.98 4 12 C5.32 12.33 6.64 12.66 8 13 C8 13.99 8 14.98 8 16 C9.32 16 10.64 16 12 16 C12 16.66 12 17.32 12 18 C6.94489444 17.55396127 4.59833262 15.35299176 1 12 C-0.26237731 9.47524538 -0.09856404 7.68799534 -0.0625 4.875 C-0.05347656 3.96492187 -0.04445313 3.05484375 -0.03515625 2.1171875 C-0.02355469 1.41851562 -0.01195312 0.71984375 0 0 Z " fill="#EE3A3C" transform="translate(602,143)"/>
<path d="M0 0 C2.97 0 5.94 0 9 0 C9 1.32 9 2.64 9 4 C7.68 4.33 6.36 4.66 5 5 C4.67 8.63 4.34 12.26 4 16 C2.68 16.33 1.36 16.66 0 17 C0 11.39 0 5.78 0 0 Z " fill="#F6BC5E" transform="translate(490,194)"/>
<path d="M0 0 C1.48831242 0.00667405 2.97660807 0.01863442 4.46484375 0.03515625 C5.22345703 0.03966797 5.98207031 0.04417969 6.76367188 0.04882812 C8.64326246 0.06064945 10.52281274 0.07858547 12.40234375 0.09765625 C11.41234375 1.41765625 10.42234375 2.73765625 9.40234375 4.09765625 C10.39234375 3.43765625 11.38234375 2.77765625 12.40234375 2.09765625 C13.39234375 2.09765625 14.38234375 2.09765625 15.40234375 2.09765625 C15.07234375 3.41765625 14.74234375 4.73765625 14.40234375 6.09765625 C12.42234375 6.42765625 10.44234375 6.75765625 8.40234375 7.09765625 C8.07234375 6.10765625 7.74234375 5.11765625 7.40234375 4.09765625 C2.78234375 4.42765625 -1.83765625 4.75765625 -6.59765625 5.09765625 C-4.10453572 0.11141519 -4.10453572 0.11141519 0 0 Z " fill="#02BF61" transform="translate(354.59765625,116.90234375)"/>
<path d="M0 0 C0.33 0.66 0.66 1.32 1 2 C0.67 2.66 0.34 3.32 0 4 C-0.66 4 -1.32 4 -2 4 C-1.67 4.99 -1.34 5.98 -1 7 C0.65 7 2.3 7 4 7 C3.67 8.32 3.34 9.64 3 11 C1.576875 11.2165625 1.576875 11.2165625 0.125 11.4375 C-2.8934494 11.82935399 -2.8934494 11.82935399 -5 13 C-7.88370333 13.07194869 -10.74239664 13.09291708 -13.625 13.0625 C-14.42679688 13.05798828 -15.22859375 13.05347656 -16.0546875 13.04882812 C-18.03649006 13.03703168 -20.01825433 13.01909605 -22 13 C-22 12.67 -22 12.34 -22 12 C-20.41058594 11.96132812 -20.41058594 11.96132812 -18.7890625 11.921875 C-17.40099999 11.8656022 -16.01298075 11.80825467 -14.625 11.75 C-13.92632813 11.73582031 -13.22765625 11.72164062 -12.5078125 11.70703125 C-10.22282354 11.63964218 -10.22282354 11.63964218 -7 11 C-6.34 9.68 -5.68 8.36 -5 7 C-8.63 7 -12.26 7 -16 7 C-16 6.67 -16 6.34 -16 6 C-15.02160156 5.85304687 -15.02160156 5.85304687 -14.0234375 5.703125 C-8.36568892 4.73513262 -4.51577961 3.56508917 0 0 Z " fill="#EA3A3A" transform="translate(636,149)"/>
<path d="M0 0 C0.33 1.98 0.66 3.96 1 6 C-1.31 6 -3.62 6 -6 6 C-6.33 6.66 -6.66 7.32 -7 8 C-12.4389165 8.21755666 -16.87080814 8.10428384 -22 6 C-21.67 5.34 -21.34 4.68 -21 4 C-17.96452047 3.04599215 -16.02857781 2.99485599 -12.875 3.5625 C-9.80919458 4.3592581 -9.80919458 4.3592581 -7 2 C-1.44444444 0 -1.44444444 0 0 0 Z " fill="#FC312D" transform="translate(690,153)"/>
<path d="M0 0 C1.32 0 2.64 0 4 0 C5.50156874 3.00313748 5.09281204 5.79067522 5.0625 9.125 C5.05347656 10.40632812 5.04445313 11.68765625 5.03515625 13.0078125 C5.02355469 13.99523437 5.01195312 14.98265625 5 16 C3.35 16.33 1.7 16.66 0 17 C0 11.39 0 5.78 0 0 Z " fill="#FACD8B" transform="translate(526,194)"/>
<path d="M0 0 C0.66 0 1.32 0 2 0 C2 6.27 2 12.54 2 19 C0.35 19 -1.3 19 -3 19 C-3 18.01 -3 17.02 -3 16 C-3.66 15.67 -4.32 15.34 -5 15 C-4.01 14.67 -3.02 14.34 -2 14 C-2.02320313 13.15695313 -2.04640625 12.31390625 -2.0703125 11.4453125 C-2.08835937 10.34960938 -2.10640625 9.25390625 -2.125 8.125 C-2.14820313 7.03445312 -2.17140625 5.94390625 -2.1953125 4.8203125 C-2 2 -2 2 0 0 Z " fill="#FC302F" transform="translate(481,131)"/>
<path d="M0 0 C1.65 0 3.3 0 5 0 C5.33 5.94 5.66 11.88 6 18 C4.35 18.33 2.7 18.66 1 19 C0.67 12.73 0.34 6.46 0 0 Z " fill="#FD3130" transform="translate(656,101)"/>
<path d="M0 0 C0 0.33 0 0.66 0 1 C-1.98 1 -3.96 1 -6 1 C-5.67 1.99 -5.34 2.98 -5 4 C-6.4375 6.6875 -6.4375 6.6875 -8 9 C-6.68 10.65 -5.36 12.3 -4 14 C-4.99 14 -5.98 14 -7 14 C-7 14.66 -7 15.32 -7 16 C-6.01 16.33 -5.02 16.66 -4 17 C-6.55687669 16.65447612 -8.57501375 16.24912987 -10.8125 14.9375 C-12.76282063 11.75539793 -12.72521403 8.55009536 -12 5 C-8.56717773 0.00680397 -5.90329885 -0.57875479 0 0 Z " fill="#F3BF68" transform="translate(481,194)"/>
<path d="M0 0 C0.99 0 1.98 0 3 0 C3 1.98 3 3.96 3 6 C2.06027344 6.45439453 2.06027344 6.45439453 1.1015625 6.91796875 C-4.07493961 9.43358882 -4.07493961 9.43358882 -7.5625 13.8125 C-7.706875 14.534375 -7.85125 15.25625 -8 16 C-10.1519437 12.77208445 -10.20086443 11.71599191 -10 8 C-8.9171875 7.690625 -8.9171875 7.690625 -7.8125 7.375 C-5.03790422 6.01853095 -4.19823206 5.22469724 -2.375 2.875 C-1.59125 1.92625 -0.8075 0.9775 0 0 Z " fill="#F93330" transform="translate(613,135)"/>
<path d="M0 0 C5.94 0 11.88 0 18 0 C17 3 17 3 15 4 C11.6593365 4.31648391 8.31782389 4.51128525 4.96875 4.71875 C2.0735199 4.81288062 2.0735199 4.81288062 0 6 C-0.66 5.67 -1.32 5.34 -2 5 C-1.34 3.35 -0.68 1.7 0 0 Z " fill="#FC302F" transform="translate(613,117)"/>
<path d="M0 0 C0 0.66 0 1.32 0 2 C1.65 2 3.3 2 5 2 C4.67 3.32 4.34 4.64 4 6 C-0.62 6.33 -5.24 6.66 -10 7 C-10.33 5.35 -10.66 3.7 -11 2 C-7.17010894 0.19769832 -4.21878192 -0.19622241 0 0 Z " fill="#FC3232" transform="translate(413,99)"/>
<path d="M0 0 C1.32 0 2.64 0 4 0 C4 5.61 4 11.22 4 17 C2.68 17 1.36 17 0 17 C0 11.39 0 5.78 0 0 Z " fill="#EDBF75" transform="translate(313,194)"/>
<path d="M0 0 C3 2.5 3 2.5 5 5 C4.67 5.66 4.34 6.32 4 7 C3.484375 6.690625 2.96875 6.38125 2.4375 6.0625 C-0.75371709 4.67145665 -3.52758063 4.18940469 -7 4 C-8.96431405 5.29264699 -8.96431405 5.29264699 -10 7 C-10 6.34 -10 5.68 -10 5 C-10.66 5 -11.32 5 -12 5 C-12 6.65 -12 8.3 -12 10 C-12.33 10 -12.66 10 -13 10 C-13.3125 7.25 -13.3125 7.25 -13 4 C-9.42726799 -0.24261926 -5.29456197 -1.29161693 0 0 Z " fill="#F2BF5E" transform="translate(575,185)"/>
<path d="M0 0 C5.26053037 -0.31563182 8.44573816 0.33409063 13 3 C12.67 4.32 12.34 5.64 12 7 C8.04 6.67 4.08 6.34 0 6 C-1 3 -1 3 0 0 Z " fill="#01BE62" transform="translate(195,99)"/>
<path d="M0 0 C0.99 0 1.98 0 3 0 C3.33 0.66 3.66 1.32 4 2 C4.99 2.66 5.98 3.32 7 4 C6.505 4.70125 6.01 5.4025 5.5 6.125 C3.79469588 9.39349956 3.83873842 11.37161436 4 15 C3.67 15.66 3.34 16.32 3 17 C2.01 17 1.02 17 0 17 C0 11.39 0 5.78 0 0 Z " fill="#F9BA5C" transform="translate(599,194)"/>
<path d="M0 0 C2.76276177 0.52268466 5.3260876 1.10869587 8 2 C10.3406065 1.72230092 12.67624308 1.39460023 15 1 C15.33 1.99 15.66 2.98 16 4 C15.34 4 14.68 4 14 4 C14 4.66 14 5.32 14 6 C12.06318839 6.08107583 10.1254066 6.13922475 8.1875 6.1875 C7.10855469 6.22230469 6.02960938 6.25710937 4.91796875 6.29296875 C2 6 2 6 0.11328125 4.48828125 C-0.43779297 3.75158203 -0.43779297 3.75158203 -1 3 C-0.67 2.01 -0.34 1.02 0 0 Z " fill="#01BD62" transform="translate(347,155)"/>
<path d="M0 0 C3.875 0.375 3.875 0.375 5.875 1.375 C5.875 2.365 5.875 3.355 5.875 4.375 C1.42 4.87 1.42 4.87 -3.125 5.375 C-3.455 6.365 -3.785 7.355 -4.125 8.375 C-5.445 8.375 -6.765 8.375 -8.125 8.375 C-8.455 9.365 -8.785 10.355 -9.125 11.375 C-8.54618672 5.15275722 -6.91719505 0.10043114 0 0 Z " fill="#F9BC59" transform="translate(270.125,193.625)"/>
<path d="M0 0 C1.2065625 0.0309375 1.2065625 0.0309375 2.4375 0.0625 C2.7675 1.0525 3.0975 2.0425 3.4375 3.0625 C4.0975 3.0625 4.7575 3.0625 5.4375 3.0625 C5.4375 4.3825 5.4375 5.7025 5.4375 7.0625 C6.4275 7.3925 7.4175 7.7225 8.4375 8.0625 C6.4375 10.0625 6.4375 10.0625 3.8125 10.1875 C3.02875 10.14625 2.245 10.105 1.4375 10.0625 C1.4375 9.4025 1.4375 8.7425 1.4375 8.0625 C0.7775 7.7325 0.1175 7.4025 -0.5625 7.0625 C-0.2325 6.4025 0.0975 5.7425 0.4375 5.0625 C-0.5525 5.0625 -1.5425 5.0625 -2.5625 5.0625 C-3.125 3.125 -3.125 3.125 -3.5625 1.0625 C-2.5625 0.0625 -2.5625 0.0625 0 0 Z " fill="#F83132" transform="translate(397.5625,148.9375)"/>
<path d="M0 0 C0.33 1.32 0.66 2.64 1 4 C-2.42094242 6.28062828 -3.68187222 6.21925007 -7.6875 6.125 C-9.17830078 6.09792969 -9.17830078 6.09792969 -10.69921875 6.0703125 C-11.45847656 6.04710937 -12.21773438 6.02390625 -13 6 C-11.28125 2.15625 -11.28125 2.15625 -8.75 0.75 C-5.72159739 -0.07592799 -3.1250237 -0.14534994 0 0 Z " fill="#FC3131" transform="translate(420,155)"/>
<path d="M0 0 C1.32 0 2.64 0 4 0 C4.6875 1.8125 4.6875 1.8125 5 4 C4.02246356 5.02196992 3.0194119 6.01979625 2 7 C1.27802838 9.60611077 1.27802838 9.60611077 1 12 C-1.97 11.505 -1.97 11.505 -5 11 C-4.54658132 9.72740489 -4.08704773 8.45698757 -3.625 7.1875 C-3.36976563 6.47980469 -3.11453125 5.77210938 -2.8515625 5.04296875 C-2 3 -2 3 0 0 Z " fill="#05BE60" transform="translate(262,148)"/>
<path d="M0 0 C1.58776994 3.01954845 2.32396688 5.33829127 2.625 8.75 C2.69976562 9.54921875 2.77453125 10.3484375 2.8515625 11.171875 C2.90054687 11.77515625 2.94953125 12.3784375 3 13 C3.99 12.34 4.98 11.68 6 11 C7 12 7 12 7.0625 15.0625 C7.041875 16.031875 7.02125 17.00125 7 18 C6.34 18 5.68 18 5 18 C5 17.34 5 16.68 5 16 C4.34 16 3.68 16 3 16 C2.67 18.64 2.34 21.28 2 24 C-0.16926659 20.74610012 -0.24080049 19.86604043 -0.1953125 16.11328125 C-0.18886719 15.17548828 -0.18242187 14.23769531 -0.17578125 13.27148438 C-0.15902344 12.29501953 -0.14226562 11.31855469 -0.125 10.3125 C-0.11597656 9.32443359 -0.10695313 8.33636719 -0.09765625 7.31835938 C-0.0740843 4.87866235 -0.04118022 2.43945303 0 0 Z " fill="#19B068" transform="translate(335,128)"/>
<path d="M0 0 C1.21236328 0.04060547 1.21236328 0.04060547 2.44921875 0.08203125 C3.06410156 0.11683594 3.67898437 0.15164062 4.3125 0.1875 C4.3125 1.1775 4.3125 2.1675 4.3125 3.1875 C1.6725 3.5175 -0.9675 3.8475 -3.6875 4.1875 C-4.0175 6.4975 -4.3475 8.8075 -4.6875 11.1875 C-5.6775 11.1875 -6.6675 11.1875 -7.6875 11.1875 C-8.05499117 3.71517962 -8.05499117 3.71517962 -6.46875 1.4375 C-4.16630036 -0.17825414 -2.78434299 -0.12105839 0 0 Z " fill="#F8C055" transform="translate(250.6875,193.8125)"/>
<path d="M0 0 C0.33 0 0.66 0 1 0 C1.33 4.62 1.66 9.24 2 14 C3.32 13.67 4.64 13.34 6 13 C5.67 14.98 5.34 16.96 5 19 C3.68 18.67 2.36 18.34 1 18 C1 18.66 1 19.32 1 20 C-3.95 19.67 -8.9 19.34 -14 19 C-14 18.67 -14 18.34 -14 18 C-9.38 18 -4.76 18 0 18 C0 12.06 0 6.12 0 0 Z " fill="#F63739" transform="translate(513,136)"/>
<path d="M0 0 C1.32 0.33 2.64 0.66 4 1 C3.67 1.66 3.34 2.32 3 3 C3.32238793 4.33602205 3.65778908 5.66891752 4 7 C4.06624507 8.74886981 4.08552595 10.50002748 4.0625 12.25 C4.05347656 13.14203125 4.04445313 14.0340625 4.03515625 14.953125 C4.02355469 15.62859375 4.01195312 16.3040625 4 17 C2.68 17 1.36 17 0 17 C0 11.39 0 5.78 0 0 Z " fill="#EEBA6F" transform="translate(321,194)"/>
<path d="M0 0 C1.32 0 2.64 0 4 0 C4 0.99 4 1.98 4 3 C-1.19104576 6.46069717 -2.77849991 7.17386794 -9 6 C-9 4.35 -9 2.7 -9 1 C-6.36 1.33 -3.72 1.66 -1 2 C-0.67 1.34 -0.34 0.68 0 0 Z " fill="#FA3130" transform="translate(467,155)"/>
<path d="M0 0 C0.99 0.33 1.98 0.66 3 1 C3 1.66 3 2.32 3 3 C3.99 3.33 4.98 3.66 6 4 C6.625 5.875 6.625 5.875 7 8 C7.33 8.99 7.66 9.98 8 11 C7.67 11.99 7.34 12.98 7 14 C6.34 14 5.68 14 5 14 C5 13.01 5 12.02 5 11 C2.525 10.01 2.525 10.01 0 9 C0 6.03 0 3.06 0 0 Z " fill="#03BE61" transform="translate(337,143)"/>
<path d="M0 0 C7.93333333 -0.62222222 7.93333333 -0.62222222 12 1.75 C13.95829554 3.95308249 14.69025617 5.10905762 15 8 C10.52578095 7.48866068 8.45508549 5.76406839 5 3 C2.31492671 2.21053391 2.31492671 2.21053391 0 2 C0 1.34 0 0.68 0 0 Z " fill="#F3BB63" transform="translate(225,186)"/>
<path d="M0 0 C0.99 0.33 1.98 0.66 3 1 C2.4375 3.375 2.4375 3.375 1 6 C-2.78587682 7.64292768 -4.94268367 8.31494529 -8.9375 7.125 C-9.618125 6.75375 -10.29875 6.3825 -11 6 C-11 5.34 -11 4.68 -11 4 C-10.37351562 3.87882813 -9.74703125 3.75765625 -9.1015625 3.6328125 C-8.28429687 3.46523437 -7.46703125 3.29765625 -6.625 3.125 C-5.81289063 2.96257812 -5.00078125 2.80015625 -4.1640625 2.6328125 C-1.81326077 2.13341068 -1.81326077 2.13341068 0 0 Z " fill="#F8C45C" transform="translate(417,204)"/>
<path d="M0 0 C2.64 0 5.28 0 8 0 C8.625 1.875 8.625 1.875 9 4 C7 6 7 6 3.9375 6.1875 C1 6 1 6 0 5 C-0.04063832 3.33382885 -0.042721 1.66611905 0 0 Z " fill="#FD302E" transform="translate(553,155)"/>
<path d="M0 0 C0 0.99 0 1.98 0 3 C-0.639375 3.61875 -1.27875 4.2375 -1.9375 4.875 C-4.30662027 7.3159118 -4.46920952 8.72679206 -5 12 C-5.99 12.495 -5.99 12.495 -7 13 C-7.33 18.94 -7.66 24.88 -8 31 C-8.33 31 -8.66 31 -9 31 C-9.10890711 27.99900412 -9.18773555 25.00203622 -9.25 22 C-9.28351563 21.16082031 -9.31703125 20.32164062 -9.3515625 19.45703125 C-9.44446855 13.46459131 -8.44051012 8.98015321 -5 4 C-2.25 1.5 -2.25 1.5 0 0 Z " fill="#E33D40" transform="translate(451,117)"/>
<path d="M0 0 C0.33 0.66 0.66 1.32 1 2 C1.66 2 2.32 2 3 2 C3.33 7.94 3.66 13.88 4 20 C2.35 20.99 0.7 21.98 -1 23 C-0.83701416 22.4337793 -0.67402832 21.86755859 -0.50610352 21.28417969 C0.01684172 18.92398883 0.11396742 16.86717843 0.09765625 14.453125 C0.09443359 13.60878906 0.09121094 12.76445312 0.08789062 11.89453125 C0.07951172 11.02183594 0.07113281 10.14914063 0.0625 9.25 C0.05798828 8.36183594 0.05347656 7.47367188 0.04882812 6.55859375 C0.037074 4.37232671 0.02064249 2.18619821 0 0 Z " fill="#1BAE6A" transform="translate(316,128)"/>
<path d="M0 0 C1.051875 0.3403125 1.051875 0.3403125 2.125 0.6875 C3.79019519 1.02810811 5.45657466 1.36308396 7.125 1.6875 C6.465 3.0075 5.805 4.3275 5.125 5.6875 C1.825 5.3575 -1.475 5.0275 -4.875 4.6875 C-4.875 3.6975 -4.875 2.7075 -4.875 1.6875 C-1.875 -0.3125 -1.875 -0.3125 0 0 Z " fill="#03BE64" transform="translate(296.875,155.3125)"/>
<path d="M0 0 C5.57142857 5.14285714 5.57142857 5.14285714 6 9 C5.34 9 4.68 9 4 9 C4 9.66 4 10.32 4 11 C3.01 10.67 2.02 10.34 1 10 C0.34 11.32 -0.32 12.64 -1 14 C-1.474375 12.88625 -1.94875 11.7725 -2.4375 10.625 C-3.25306463 8.73289006 -4.07856355 6.84287291 -5 5 C-2.03 5.495 -2.03 5.495 1 6 C0.67 4.02 0.34 2.04 0 0 Z " fill="#E83A3D" transform="translate(691,119)"/>
<path d="M0 0 C1.32 0.33 2.64 0.66 4 1 C2.45730076 5.72065967 0.92205381 10.41664092 -1 15 C-3.76223278 12.23776722 -3.57856291 9.79293383 -4 6 C-2.35 5.67 -0.7 5.34 1 5 C0.67 3.35 0.34 1.7 0 0 Z " fill="#F3BC68" transform="translate(447,198)"/>
<path d="M0 0 C1.65 0 3.3 0 5 0 C4.505 0.474375 4.01 0.94875 3.5 1.4375 C1.29546331 5.20358351 1.75391887 8.73459379 2 13 C0.68 13.33 -0.64 13.66 -2 14 C-2 11.03 -2 8.06 -2 5 C-1.34 5 -0.68 5 0 5 C0 3.35 0 1.7 0 0 Z " fill="#F9C46D" transform="translate(537,197)"/>
<path d="M0 0 C3.3 0 6.6 0 10 0 C10 0.99 10 1.98 10 3 C5.67265609 5.22923777 2.71599818 4.92470553 -2 4 C-1.34 2.68 -0.68 1.36 0 0 Z " fill="#FC322D" transform="translate(464,117)"/>
<path d="M0 0 C0 0.66 0 1.32 0 2 C1.65 2.33 3.3 2.66 5 3 C5.33 4.32 5.66 5.64 6 7 C5.67 6.34 5.34 5.68 5 5 C2.19329369 4.08971687 0.60695071 3.77456117 -2.1875 4.8125 C-4.13894384 6.00297433 -4.13894384 6.00297433 -6 8 C-7.09658936 4.71023192 -6.79953138 3.28696233 -6 0 C-3 -1 -3 -1 0 0 Z " fill="#DC8311" transform="translate(51,58)"/>
<path d="M0 0 C3.125 0.375 3.125 0.375 6 1 C2.78927847 5.88588058 -1.54398733 8.98281222 -7 11 C-9.28125 10.6328125 -9.28125 10.6328125 -11 10 C-9.71086513 9.32845067 -8.41859796 8.66291141 -7.125 8 C-6.40570313 7.62875 -5.68640625 7.2575 -4.9453125 6.875 C-3 6 -3 6 -1 6 C-1.20625 5.38125 -1.4125 4.7625 -1.625 4.125 C-1.74875 3.42375 -1.8725 2.7225 -2 2 C-1.34 1.34 -0.68 0.68 0 0 Z " fill="#DD8818" transform="translate(70,306)"/>
<path d="M0 0 C4.8 2.46153846 4.8 2.46153846 5.8125 5.1875 C5.874375 5.785625 5.93625 6.38375 6 7 C1.99799622 8.60080151 -1.04556236 7.29279692 -5 6 C-3.625 4.5 -3.625 4.5 -2 3 C-1.34 3 -0.68 3 0 3 C0 2.01 0 1.02 0 0 Z " fill="#F23535" transform="translate(474,117)"/>
<path d="M0 0 C0.99 0.495 0.99 0.495 2 1 C6.13805858 2.37935286 9.95843468 1.92050087 14.28515625 1.7421875 C15.62900391 1.86980469 15.62900391 1.86980469 17 2 C17.99 3.485 17.99 3.485 19 5 C18.1646875 4.85691406 18.1646875 4.85691406 17.3125 4.7109375 C10.99413759 3.79306729 5.83674491 4.08162755 0 7 C0 4.69 0 2.38 0 0 Z " fill="#E53E40" transform="translate(666,119)"/>
<path d="M0 0 C0.33 0 0.66 0 1 0 C1.66 3.96 2.32 7.92 3 12 C4.65 12.33 6.3 12.66 8 13 C8 13.99 8 14.98 8 16 C9.32 16 10.64 16 12 16 C12 16.66 12 17.32 12 18 C6.94489444 17.55396127 4.59833262 15.35299176 1 12 C-0.26237731 9.47524538 -0.09856404 7.68799534 -0.0625 4.875 C-0.05347656 3.96492187 -0.04445313 3.05484375 -0.03515625 2.1171875 C-0.02355469 1.41851562 -0.01195312 0.71984375 0 0 Z " fill="#E33F41" transform="translate(602,143)"/>
<path d="M0 0 C2.46278801 2.46278801 2.99771255 4.70676982 4 8 C3.01 8.33 2.02 8.66 1 9 C1 9.99 1 10.98 1 12 C-0.8125 11.8125 -0.8125 11.8125 -3 11 C-4.8125 8.625 -4.8125 8.625 -6 6 C-5.67 5.01 -5.34 4.02 -5 3 C-4.34 4.32 -3.68 5.64 -3 7 C-2.34 7 -1.68 7 -1 7 C-0.67 4.69 -0.34 2.38 0 0 Z " fill="#E63B3F" transform="translate(449,145)"/>
<path d="M0 0 C0.66 0 1.32 0 2 0 C2 0.99 2 1.98 2 3 C3.65 3 5.3 3 7 3 C5.87548273 5.9719385 4.77706209 8.33440687 3 11 C2.34 10.67 1.68 10.34 1 10 C0.66666667 8 0.33333333 6 0 4 C-0.66 3.67 -1.32 3.34 -2 3 C-1.34 2.01 -0.68 1.02 0 0 Z " fill="#EB3B3D" transform="translate(476,147)"/>
<path d="M0 0 C4.29 0.33 8.58 0.66 13 1 C13 1.66 13 2.32 13 3 C12.20335937 3.03738281 11.40671875 3.07476562 10.5859375 3.11328125 C4.68223426 3.47956941 0.03056497 3.78602794 -5 7 C-4.34 5.02 -3.68 3.04 -3 1 C-2.34 1.33 -1.68 1.66 -1 2 C-0.67 1.34 -0.34 0.68 0 0 Z " fill="#E23D3D" transform="translate(456,120)"/>
<path d="M0 0 C2.97 0.495 2.97 0.495 6 1 C7 4 7 4 6.109375 6.04296875 C5.66078125 6.75066406 5.2121875 7.45835937 4.75 8.1875 C4.31171875 8.90292969 3.8734375 9.61835938 3.421875 10.35546875 C2.95265625 10.89816406 2.4834375 11.44085938 2 12 C1.01 12 0.02 12 -1 12 C-0.34 11.01 0.32 10.02 1 9 C1.66 9 2.32 9 3 9 C2.72965366 6.56282742 2.72965366 6.56282742 2 4 C1.01 3.34 0.02 2.68 -1 2 C-0.67 1.34 -0.34 0.68 0 0 Z " fill="#18B16C" transform="translate(210,146)"/>
<path d="M0 0 C0.99 0.66 1.98 1.32 3 2 C1.68 4.97 0.36 7.94 -1 11 C-1.66 11 -2.32 11 -3 11 C-3.125 4.375 -3.125 4.375 -2 1 C-1.34 0.67 -0.68 0.34 0 0 Z " fill="#F2C678" transform="translate(426,205)"/>
<path d="M0 0 C0.99 0.33 1.98 0.66 3 1 C3 4.63 3 8.26 3 12 C2.01 12 1.02 12 0 12 C-1.16063604 7.74433453 -0.76173392 4.3164922 0 0 Z " fill="#F8C44C" transform="translate(546,199)"/>
<path d="M0 0 C0.515625 0.2475 1.03125 0.495 1.5625 0.75 C0.840625 1.141875 0.11875 1.53375 -0.625 1.9375 C-3.57414788 3.69023982 -3.57414788 3.69023982 -6.0625 6.4375 C-8.4375 8.75 -8.4375 8.75 -11.4375 8.75 C-10.51142708 5.04570832 -9.24870807 3.32629659 -6.0625 1.375 C-2.4375 -0.25 -2.4375 -0.25 0 0 Z " fill="#E9393C" transform="translate(614.4375,134.25)"/>
<path d="M0 0 C0.33 0 0.66 0 1 0 C1 1.98 1 3.96 1 6 C1.7425 6.144375 2.485 6.28875 3.25 6.4375 C5.52027739 6.90187492 7.75759479 7.41863569 10 8 C10 8.66 10 9.32 10 10 C7.50935112 10.68707555 5.62113708 11 3 11 C-1.09628009 6.10722101 -1.09628009 6.10722101 -0.75 2.125 C-0.5025 1.42375 -0.255 0.7225 0 0 Z " fill="#F9C87F" transform="translate(242,199)"/>
<path d="M0 0 C1.33333333 0 2.66666667 0 4 0 C4.14285714 7.42857143 4.14285714 7.42857143 3 11 C2.01 11 1.02 11 0 11 C0 7.37 0 3.74 0 0 Z " fill="#F2CB7F" transform="translate(397,200)"/>
<path d="M0 0 C0.99 0 1.98 0 3 0 C6 4.22222222 6 4.22222222 6 7 C6.66 7 7.32 7 8 7 C8 7.66 8 8.32 8 9 C5.3364031 8.64005447 3.41816548 8.28838998 1.1875 6.75 C-0.39364795 4.41988723 -0.22337696 2.75498245 0 0 Z " fill="#F7BF5C" transform="translate(262,202)"/>
<path d="M0 0 C1.625 1.875 1.625 1.875 1.875 4.5625 C1.7925 5.325625 1.71 6.08875 1.625 6.875 C-1.375 5.875 -1.375 5.875 -2.8125 4.375 C-4.62693719 2.63314029 -5.93059077 2.29644987 -8.375 1.875 C-8.375 1.215 -8.375 0.555 -8.375 -0.125 C-3.06590909 -1.45227273 -3.06590909 -1.45227273 0 0 Z " fill="#F7BC57" transform="translate(483.375,195.125)"/>
<path d="M0 0 C0.99 0 1.98 0 3 0 C3 0.66 3 1.32 3 2 C3.66 2 4.32 2 5 2 C5 2.99 5 3.98 5 5 C5.99 5.33 6.98 5.66 8 6 C7.67 6.66 7.34 7.32 7 8 C6.34 8 5.68 8 5 8 C4.67 8.66 4.34 9.32 4 10 C4 9.34 4 8.68 4 8 C3.34 8 2.68 8 2 8 C1.34 5.36 0.68 2.72 0 0 Z " fill="#FBBD51" transform="translate(441,196)"/>
<path d="M0 0 C2.31 0.33 4.62 0.66 7 1 C7.33 1.99 7.66 2.98 8 4 C7.00390625 5.82421875 7.00390625 5.82421875 5.5625 7.6875 C5.08941406 8.31011719 4.61632812 8.93273437 4.12890625 9.57421875 C3.75636719 10.04472656 3.38382812 10.51523438 3 11 C2.67 10.01 2.34 9.02 2 8 C2.66 8 3.32 8 4 8 C3.67 6.35 3.34 4.7 3 3 C2.01 3 1.02 3 0 3 C0 2.01 0 1.02 0 0 Z " fill="#DB4143" transform="translate(423,146)"/>
<path d="M0 0 C2.32590854 3.63423209 2.16265833 6.77088331 2 11 C-1 10 -1 10 -2.1875 8.25 C-3.10819096 5.70039426 -3.14948718 3.69076919 -3 1 C-2.01 0.67 -1.02 0.34 0 0 Z " fill="#FABE52" transform="translate(619,199)"/>
<path d="M0 0 C3.64756665 2.4317111 3.73087204 3.93879054 5 8 C5.66 8.66 6.32 9.32 7 10 C5.02 10.33 3.04 10.66 1 11 C-0.98362069 8.08291076 -0.9876191 6.87619096 -0.625 3.25 C-0.41875 2.1775 -0.2125 1.105 0 0 Z " fill="#F4BB64" transform="translate(404,198)"/>
<path d="M0 0 C0.69738281 0.01804687 1.39476562 0.03609375 2.11328125 0.0546875 C3.82611539 0.10161446 5.53823824 0.17335395 7.25 0.25 C7.25 0.91 7.25 1.57 7.25 2.25 C6.156875 2.20875 5.06375 2.1675 3.9375 2.125 C-1.41203382 2.10579162 -6.52842235 3.17496931 -11.75 4.25 C-8.36399708 -0.18322032 -5.23938601 -0.25751236 0 0 Z " fill="#DE3F40" transform="translate(622.75,120.75)"/>
<path d="M0 0 C2.0625 0.1875 2.0625 0.1875 4 1 C4.33 1.99 4.66 2.98 5 4 C5.66 4 6.32 4 7 4 C7 4.99 7 5.98 7 7 C5.68 7 4.36 7 3 7 C2.67 7.66 2.34 8.32 2 9 C1.71125 8.21625 1.4225 7.4325 1.125 6.625 C0.15087746 3.90328368 0.15087746 3.90328368 -2 2 C-1.34 1.34 -0.68 0.68 0 0 Z " fill="#FB3130" transform="translate(421,103)"/>
<path d="M0 0 C4.875 4.625 4.875 4.625 6 8 C3.6875 8.3125 3.6875 8.3125 1 8 C-0.8125 5.5 -0.8125 5.5 -2 3 C-1.34 2.01 -0.68 1.02 0 0 Z " fill="#F4C26A" transform="translate(508,203)"/>
<path d="M0 0 C1.64666203 0.1135629 3.29236082 0.24117381 4.9375 0.375 C6.31228516 0.47941406 6.31228516 0.47941406 7.71484375 0.5859375 C8.84599609 0.79089844 8.84599609 0.79089844 10 1 C10.33 1.66 10.66 2.32 11 3 C8 4 8 4 6.1875 3.375 C2.86051315 2.8046594 0.8472702 4.38223284 -2 6 C-1.34 4.02 -0.68 2.04 0 0 Z " fill="#FABB53" transform="translate(286,195)"/>
<path d="M0 0 C0 0.33 0 0.66 0 1 C-0.9075 1.061875 -1.815 1.12375 -2.75 1.1875 C-6.73784176 2.18446044 -7.76592111 3.64888166 -10 7 C-10 6.34 -10 5.68 -10 5 C-10.66 5 -11.32 5 -12 5 C-12 6.65 -12 8.3 -12 10 C-12.33 10 -12.66 10 -13 10 C-13.3125 7.25 -13.3125 7.25 -13 4 C-9.09351253 -0.63895387 -5.65200184 -0.38318657 0 0 Z " fill="#F1BD6F" transform="translate(575,185)"/>
<path d="M0 0 C0.99 0 1.98 0 3 0 C3.33 1.32 3.66 2.64 4 4 C4.99 4 5.98 4 7 4 C7 4.99 7 5.98 7 7 C5.02 7.33 3.04 7.66 1 8 C0.855625 7.401875 0.71125 6.80375 0.5625 6.1875 C0.1127561 4.43849596 -0.42892341 2.71322977 -1 1 C-0.67 0.67 -0.34 0.34 0 0 Z " fill="#03BE63" transform="translate(210,106)"/>
<path d="M0 0 C2.475 0.495 2.475 0.495 5 1 C5.66 2.98 6.32 4.96 7 7 C5.68 7.33 4.36 7.66 3 8 C0 2.25 0 2.25 0 0 Z " fill="#F2BE6B" transform="translate(368,194)"/>
<path d="M0 0 C0.66 0 1.32 0 2 0 C2.39169887 2.66355234 2.40564529 4.39224373 0.88671875 6.66796875 C-0.36389317 8.1510888 -1.67864514 9.57954352 -3 11 C-4.68496298 10.03114628 -6.35178756 9.03013277 -8 8 C-8 7.67 -8 7.34 -8 7 C-4.535 6.505 -4.535 6.505 -1 6 C-0.67 4.02 -0.34 2.04 0 0 Z " fill="#DC841C" transform="translate(57,66)"/>
<path d="M0 0 C0 0.66 0 1.32 0 2 C0.66 2.33 1.32 2.66 2 3 C1.38125 3.2475 0.7625 3.495 0.125 3.75 C-2.35068687 5.20628639 -2.95125002 6.37812506 -4 9 C-4.33 7.68 -4.66 6.36 -5 5 C-5.66 5.66 -6.32 6.32 -7 7 C-6.75 4.625 -6.75 4.625 -6 2 C-3.84898936 0.54286376 -2.59713506 0 0 0 Z " fill="#F3BD6E" transform="translate(356,185)"/>
<path d="M0 0 C0.5625 1.9375 0.5625 1.9375 1 4 C0.67 4.33 0.34 4.66 0 5 C-0.23192865 6.51469448 -0.41215238 8.03754562 -0.5625 9.5625 C-0.64628906 10.38878906 -0.73007812 11.21507812 -0.81640625 12.06640625 C-0.87699219 12.70449219 -0.93757812 13.34257812 -1 14 C-1.66 14 -2.32 14 -3 14 C-3.02698189 12.37509046 -3.04638757 10.75005367 -3.0625 9.125 C-3.07410156 8.22007812 -3.08570313 7.31515625 -3.09765625 6.3828125 C-3 4 -3 4 -2 2 C-1.34 2 -0.68 2 0 2 C0 1.34 0 0.68 0 0 Z " fill="#FDC54B" transform="translate(530,196)"/>
<path d="M0 0 C-0.99 0.495 -0.99 0.495 -2 1 C-2.33 1.99 -2.66 2.98 -3 4 C-3.53109375 3.68289062 -4.0621875 3.36578125 -4.609375 3.0390625 C-7.54535848 1.7629651 -10.06174329 1.58292979 -13.25 1.375 C-14.32765625 1.30023438 -15.4053125 1.22546875 -16.515625 1.1484375 C-17.33546875 1.09945312 -18.1553125 1.05046875 -19 1 C-19 0.67 -19 0.34 -19 0 C-16.77156512 -0.19600577 -14.54220107 -0.38146569 -12.3125 -0.5625 C-10.45044922 -0.71912109 -10.45044922 -0.71912109 -8.55078125 -0.87890625 C-5.44164467 -0.98493841 -2.99189028 -0.77228525 0 0 Z " fill="#19AC66" transform="translate(263,122)"/>
<path d="M0 0 C1.42892578 0.00773437 1.42892578 0.00773437 2.88671875 0.015625 C4.30404297 0.00789063 4.30404297 0.00789063 5.75 0 C8.7851829 0.28546672 10.91044277 0.77579631 13.57421875 2.265625 C14.38671875 4.390625 14.38671875 4.390625 14.57421875 6.265625 C13.48109375 5.605625 12.38796875 4.945625 11.26171875 4.265625 C6.1055473 1.63662555 1.23651019 1.89091454 -4.42578125 2.265625 C-2.42578125 0.265625 -2.42578125 0.265625 0 0 Z " fill="#DF3F40" transform="translate(408.42578125,104.734375)"/>
<path d="M0 0 C3.43595166 1.52708963 6.11912454 3.59927045 9 6 C8.67 6.66 8.34 7.32 8 8 C7.34 7.34 6.68 6.68 6 6 C3.39719432 6.32041397 3.39719432 6.32041397 1 7 C0.67 4.69 0.34 2.38 0 0 Z " fill="#E48513" transform="translate(67,39)"/>
<path d="M0 0 C0.99 0.33 1.98 0.66 3 1 C1.60667426 4.36720387 0.0210714 5.9859524 -3 8 C-3 7.01 -3 6.02 -3 5 C-3.66 4.67 -4.32 4.34 -5 4 C-2.6875 1.9375 -2.6875 1.9375 0 0 Z " fill="#F3C56A" transform="translate(237,202)"/>
<path d="M0 0 C0.66 0.33 1.32 0.66 2 1 C1.01 2.485 1.01 2.485 0 4 C-0.99 4 -1.98 4 -3 4 C-3.33 4.99 -3.66 5.98 -4 7 C-7.0625 8.6875 -7.0625 8.6875 -10 10 C-8.5741914 6.54804233 -6.90253666 4.8985744 -3.875 2.75 C-3.15054688 2.22921875 -2.42609375 1.7084375 -1.6796875 1.171875 C-1.12539063 0.78515625 -0.57109375 0.3984375 0 0 Z " fill="#D68721" transform="translate(36,256)"/>
<path d="M0 0 C0.66 0.33 1.32 0.66 2 1 C2.1875 3.875 2.1875 3.875 2 7 C1.01 7.66 0.02 8.32 -1 9 C-2.32 8.34 -3.64 7.68 -5 7 C-4.34 6.67 -3.68 6.34 -3 6 C-1.95191959 4.02477154 -0.9479589 2.02518491 0 0 Z " fill="#F2BE6D" transform="translate(579,200)"/>
<path d="M0 0 C1.9375 0.125 1.9375 0.125 4 1 C5.25 3.5625 5.25 3.5625 6 6 C4.35 6 2.7 6 1 6 C0.34 4.35 -0.32 2.7 -1 1 C-0.67 0.67 -0.34 0.34 0 0 Z " fill="#FD302C" transform="translate(450,153)"/>
<path d="M0 0 C0.66 0.99 1.32 1.98 2 3 C-1.2605096 6.2605096 -4.89083745 6.05467405 -9.3125 6.0625 C-11.1378125 6.0315625 -11.1378125 6.0315625 -13 6 C-13 5.67 -13 5.34 -13 5 C-12.09507812 4.83564453 -12.09507812 4.83564453 -11.171875 4.66796875 C-5.06315013 3.49202872 -5.06315013 3.49202872 0 0 Z " fill="#E13D3F" transform="translate(688,150)"/>
<path d="M0 0 C0.99 0 1.98 0 3 0 C2.65120368 3.25543229 1.97866739 4.01873107 -0.5625 6.25 C-1.366875 6.8275 -2.17125 7.405 -3 8 C-3.33 6.68 -3.66 5.36 -4 4 C-3.34 4 -2.68 4 -2 4 C-1.34 2.68 -0.68 1.36 0 0 Z " fill="#19B16D" transform="translate(374,151)"/>
<path d="M0 0 C0.66 0.33 1.32 0.66 2 1 C2.625 3.5625 2.625 3.5625 3 6 C3.66 6 4.32 6 5 6 C5 7.65 5 9.3 5 11 C4.01 11.495 4.01 11.495 3 12 C2.62875 10.3603125 2.62875 10.3603125 2.25 8.6875 C0.97997149 4.94091591 0.34243648 3.89404734 -3 2 C-2.01 1.34 -1.02 0.68 0 0 Z " fill="#E53D3E" transform="translate(634,121)"/>
<path d="M0 0 C2.125 0.375 2.125 0.375 4 1 C3.67 1.99 3.34 2.98 3 4 C1.68 3.67 0.36 3.34 -1 3 C-1 3.66 -1 4.32 -1 5 C-1.99 5 -2.98 5 -4 5 C-4.33 5.99 -4.66 6.98 -5 8 C-5.66 7.67 -6.32 7.34 -7 7 C-4.66666667 4.66666667 -2.33333333 2.33333333 0 0 Z " fill="#E48111" transform="translate(29,263)"/>
<path d="M0 0 C0.99 0.33 1.98 0.66 3 1 C2.34 1 1.68 1 1 1 C1 5.29 1 9.58 1 14 C1.99 14.33 2.98 14.66 4 15 C3.67 15.66 3.34 16.32 3 17 C2.01 17 1.02 17 0 17 C0 11.39 0 5.78 0 0 Z " fill="#EBBE77" transform="translate(599,194)"/>
<path d="M0 0 C0.99 0.33 1.98 0.66 3 1 C3 2.65 3 4.3 3 6 C2.01 6.33 1.02 6.66 0 7 C-0.66 6.67 -1.32 6.34 -2 6 C-1.125 1.125 -1.125 1.125 0 0 Z " fill="#FC302F" transform="translate(424,148)"/>
<path d="M0 0 C0.763125 0.0825 1.52625 0.165 2.3125 0.25 C1 2.75 1 2.75 -0.6875 5.25 C-3.6875 5.25 -3.6875 5.25 -5.6875 4.25 C-3.34903846 0.31153846 -3.34903846 0.31153846 0 0 Z " fill="#F1BE6E" transform="translate(511.6875,193.75)"/>
<path d="M0 0 C3.12987352 2.81688617 4.53419673 5.09119128 6 9 C6.95824253 10.36365283 7.94721175 11.70794169 9 13 C5.6227555 11.60724746 4.12929695 10.17726069 2.25 7.0625 C1.82203125 6.37285156 1.3940625 5.68320313 0.953125 4.97265625 C0 3 0 3 0 0 Z " fill="#24AA6B" transform="translate(177,146)"/>
<path d="M0 0 C1.45742463 -0.08096803 2.91612807 -0.13917774 4.375 -0.1875 C5.18710938 -0.22230469 5.99921875 -0.25710937 6.8359375 -0.29296875 C7.55007812 -0.19628906 8.26421875 -0.09960938 9 0 C11.1519437 3.22791555 11.20086443 4.28400809 11 8 C10.01 8.495 10.01 8.495 9 9 C8.34 6.69 7.68 4.38 7 2 C4.69 1.67 2.38 1.34 0 1 C0 0.67 0 0.34 0 0 Z " fill="#D9871E" transform="translate(112,138)"/>
<path d="M0 0 C1.65 0 3.3 0 5 0 C4.67 1.32 4.34 2.64 4 4 C1.125 4.625 1.125 4.625 -2 5 C-2.66 4.34 -3.32 3.68 -4 3 C-2.68 3 -1.36 3 0 3 C0 2.01 0 1.02 0 0 Z " fill="#F7C252" transform="translate(229,207)"/>
<path d="M0 0 C2.64 0.33 5.28 0.66 8 1 C5.28817788 3.60334924 4.10866187 3.99456691 0.25 4.1875 C-0.8225 4.125625 -1.895 4.06375 -3 4 C-2.01 2.68 -1.02 1.36 0 0 Z " fill="#EA3A3D" transform="translate(468,158)"/>
<path d="M0 0 C1.98 0.495 1.98 0.495 4 1 C4 2.32 4 3.64 4 5 C2.35 4.67 0.7 4.34 -1 4 C-0.67 2.68 -0.34 1.36 0 0 Z " fill="#EEC06D" transform="translate(637,206)"/>
<path d="M0 0 C0.99 0.33 1.98 0.66 3 1 C3.33 2.65 3.66 4.3 4 6 C0.73045798 5.43628586 -0.82575883 4.50037734 -3 2 C-2.01 2 -1.02 2 0 2 C0 1.34 0 0.68 0 0 Z " fill="#F3B569" transform="translate(629,195)"/>
<path d="M0 0 C4.29 0.33 8.58 0.66 13 1 C10.34211707 3.65788293 8.72706873 3.85384044 5 4 C3.35 2.68 1.7 1.36 0 0 Z " fill="#1BB16B" transform="translate(349,154)"/>
<path d="M0 0 C0.33 0.66 0.66 1.32 1 2 C1.66 2.33 2.32 2.66 3 3 C2.67 4.32 2.34 5.64 2 7 C0.68 6.67 -0.64 6.34 -2 6 C-2 4.35 -2 2.7 -2 1 C-1.34 0.67 -0.68 0.34 0 0 Z " fill="#02BC61" transform="translate(211,148)"/>
<path d="M0 0 C1.32 0.33 2.64 0.66 4 1 C3.34 3.64 2.68 6.28 2 9 C1.34 8.67 0.68 8.34 0 8 C0 5.36 0 2.72 0 0 Z " fill="#02BC5F" transform="translate(265,139)"/>
<path d="M0 0 C0.66 0.33 1.32 0.66 2 1 C1.0409375 1.804375 1.0409375 1.804375 0.0625 2.625 C-2.38529404 5.44367193 -2.66714612 7.33860732 -3 11 C-3.99 10.67 -4.98 10.34 -6 10 C-4.79157144 5.56909529 -3.48331435 3.01887244 0 0 Z " fill="#DF3A41" transform="translate(397,102)"/>
<path d="M0 0 C5.47826087 -0.36521739 5.47826087 -0.36521739 7.875 1.3125 C9 3 9 3 9 6 C7.68 6 6.36 6 5 6 C4.67 5.01 4.34 4.02 4 3 C4.33 2.67 4.66 2.34 5 2 C3.35 1.67 1.7 1.34 0 1 C0 0.67 0 0.34 0 0 Z " fill="#F5B761" transform="translate(540,194)"/>
<path d="M0 0 C2 1.3125 2 1.3125 4 3 C4 3.99 4 4.98 4 6 C2.68 6 1.36 6 0 6 C-1.75 4 -1.75 4 -3 2 C-2.01 2 -1.02 2 0 2 C0 1.34 0 0.68 0 0 Z " fill="#F3BA64" transform="translate(416,195)"/>
<path d="M0 0 C0.33 0.99 0.66 1.98 1 3 C-0.40445835 5.2636564 -2.1967913 7.0208685 -4 9 C-4.8125 7.3125 -4.8125 7.3125 -5 5 C-2.5625 2.25 -2.5625 2.25 0 0 Z " fill="#18AF6A" transform="translate(268,150)"/>
<path d="M0 0 C2 2 2 2 2 5 C-0.31 4.34 -2.62 3.68 -5 3 C-5 2.34 -5 1.68 -5 1 C-2.625 0.375 -2.625 0.375 0 0 Z " fill="#F8C94E" transform="translate(411,207)"/>
<path d="M0 0 C1.32 0.33 2.64 0.66 4 1 C4.33 2.98 4.66 4.96 5 7 C3.0625 6.3125 3.0625 6.3125 1 5 C0.25 2.375 0.25 2.375 0 0 Z " fill="#EFBD68" transform="translate(562,204)"/>
<path d="M0 0 C0.33 0 0.66 0 1 0 C1 2.97 1 5.94 1 9 C0.01 8.67 -0.98 8.34 -2 8 C-1.125 1.125 -1.125 1.125 0 0 Z " fill="#FED92E" transform="translate(493,201)"/>
<path d="M0 0 C2.475 0.495 2.475 0.495 5 1 C5.33 2.32 5.66 3.64 6 5 C4.35 4.67 2.7 4.34 1 4 C0.67 2.68 0.34 1.36 0 0 Z " fill="#EFBA67" transform="translate(581,194)"/>
<path d="M0 0 C6.875 3.75 6.875 3.75 8 6 C6.1875 6.6875 6.1875 6.6875 4 7 C2.25 5.5625 2.25 5.5625 1 4 C1.33 3.34 1.66 2.68 2 2 C1.34 2 0.68 2 0 2 C0 1.34 0 0.68 0 0 Z " fill="#DF8215" transform="translate(130,115)"/>
<path d="M0 0 C1.32 0 2.64 0 4 0 C3.67 2.31 3.34 4.62 3 7 C0 3.375 0 3.375 0 0 Z " fill="#F2BF6E" transform="translate(459,206)"/>
<path d="M0 0 C-0.875 4.75 -0.875 4.75 -2 7 C-2.66 7 -3.32 7 -4 7 C-4 5.02 -4 3.04 -4 1 C-2 0 -2 0 0 0 Z " fill="#F9BB5C" transform="translate(221,190)"/>
<path d="M0 0 C0.99 0.33 1.98 0.66 3 1 C3.1875 3.3125 3.1875 3.3125 3 6 C2.01 6.99 1.02 7.98 0 9 C0 6.03 0 3.06 0 0 Z " fill="#FBDA5F" transform="translate(275,184)"/>
<path d="M0 0 C0.33 0.99 0.66 1.98 1 3 C2.98 3 4.96 3 7 3 C6.67 3.99 6.34 4.98 6 6 C3.625 5.6875 3.625 5.6875 1 5 C0.34 4.01 -0.32 3.02 -1 2 C-0.67 1.34 -0.34 0.68 0 0 Z " fill="#F9CB41" transform="translate(566,206)"/>
<path d="M0 0 C0 1.65 0 3.3 0 5 C-1.32 5 -2.64 5 -4 5 C-4.33 5.99 -4.66 6.98 -5 8 C-4.6875 5.125 -4.6875 5.125 -4 2 C-1 0 -1 0 0 0 Z " fill="#FCCE49" transform="translate(266,197)"/>
<path d="M0 0 C0.99 0.33 1.98 0.66 3 1 C3 1.99 3 2.98 3 4 C0.69 4 -1.62 4 -4 4 C-2.68 2.68 -1.36 1.36 0 0 Z " fill="#FCCE42" transform="translate(273,194)"/>
<path d="M0 0 C1 2 1 2 0.375 4 C-1.39265071 6.57112831 -3.07589059 7.07659703 -6 8 C-4.55746343 4.63408134 -2.66735273 2.48952921 0 0 Z " fill="#D98221" transform="translate(31,41)"/>
<path d="M0 0 C0.99 0.66 1.98 1.32 3 2 C2.67 2.99 2.34 3.98 2 5 C0.68 5 -0.64 5 -2 5 C-2 3.68 -2 2.36 -2 1 C-1.34 0.67 -0.68 0.34 0 0 Z " fill="#F6BD5D" transform="translate(426,205)"/>
<path d="M0 0 C0.33 0.99 0.66 1.98 1 3 C-1.31 3.33 -3.62 3.66 -6 4 C-6 3.01 -6 2.02 -6 1 C-4.02 0.67 -2.04 0.34 0 0 Z " fill="#FBC743" transform="translate(415,194)"/>
<path d="M0 0 C0.33 0 0.66 0 1 0 C1 1.65 1 3.3 1 5 C1.99 5.33 2.98 5.66 4 6 C4 6.66 4 7.32 4 8 C3.34 8 2.68 8 2 8 C2 7.34 2 6.68 2 6 C0.68 5.67 -0.64 5.34 -2 5 C-1.34 3.35 -0.68 1.7 0 0 Z " fill="#FABB54" transform="translate(351,189)"/>
<path d="M0 0 C5.75 -0.125 5.75 -0.125 8 1 C7.67 1.99 7.34 2.98 7 4 C4.69 3.34 2.38 2.68 0 2 C0 1.34 0 0.68 0 0 Z " fill="#FCBE52" transform="translate(225,186)"/>
<path d="M0 0 C2.97 0 5.94 0 9 0 C9 0.66 9 1.32 9 2 C6.08517222 2.80967438 4.53886783 3.21845993 1.6875 2.0625 C1.130625 1.711875 0.57375 1.36125 0 1 C0 0.67 0 0.34 0 0 Z " fill="#17B36B" transform="translate(193,155)"/>
<path d="M0 0 C0.99 0.33 1.98 0.66 3 1 C3.6875 3.0625 3.6875 3.0625 4 5 C2.68 5.99 1.36 6.98 0 8 C-1.09658936 4.71023192 -0.79953138 3.28696233 0 0 Z " fill="#E5890D" transform="translate(45,58)"/>
<path d="M0 0 C0.33 0.66 0.66 1.32 1 2 C1.99 1.67 2.98 1.34 4 1 C3.67 2.32 3.34 3.64 3 5 C1.35 5 -0.3 5 -2 5 C-1.34 3.35 -0.68 1.7 0 0 Z " fill="#F6C179" transform="translate(371,215)"/>
<path d="M0 0 C0.33 0 0.66 0 1 0 C1 2.64 1 5.28 1 8 C0.01 8.495 0.01 8.495 -1 9 C-1.33 7.02 -1.66 5.04 -2 3 C-1.34 3 -0.68 3 0 3 C0 2.01 0 1.02 0 0 Z " fill="#F7BF68" transform="translate(485,199)"/>
<path d="M0 0 C2.7839183 1.39195915 2.97898997 3.15575779 4 6 C2.35 5.67 0.7 5.34 -1 5 C-0.67 3.35 -0.34 1.7 0 0 Z " fill="#FBB657" transform="translate(471,201)"/>
<path d="M0 0 C0.33 0.99 0.66 1.98 1 3 C-0.98 3.33 -2.96 3.66 -5 4 C-5.33 3.01 -5.66 2.02 -6 1 C-4.02 0.67 -2.04 0.34 0 0 Z " fill="#FDC242" transform="translate(481,194)"/>
<path d="M0 0 C1.32 0 2.64 0 4 0 C4.33 1.65 4.66 3.3 5 5 C4.34 5 3.68 5 3 5 C3 4.34 3 3.68 3 3 C2.01 3 1.02 3 0 3 C0 2.01 0 1.02 0 0 Z " fill="#FCBB51" transform="translate(451,190)"/>
<path d="M0 0 C0.33 0 0.66 0 1 0 C1 1.65 1 3.3 1 5 C-0.65 5.66 -2.3 6.32 -4 7 C-2.92598892 4.08482708 -2.22189824 2.22189824 0 0 Z " fill="#18AF6A" transform="translate(340,120)"/>
<path d="M0 0 C2.475 0.495 2.475 0.495 5 1 C5 2.65 5 4.3 5 6 C3.31237149 4.3545622 1.6459651 2.68711423 0 1 C0 0.67 0 0.34 0 0 Z " fill="#DE821B" transform="translate(23,84)"/>
<path d="M0 0 C0.99 0 1.98 0 3 0 C3 1.32 3 2.64 3 4 C1.68 4 0.36 4 -1 4 C-0.67 2.68 -0.34 1.36 0 0 Z " fill="#E9BE6D" transform="translate(527,188)"/>
<path d="M0 0 C0.99 0.33 1.98 0.66 3 1 C3 1.99 3 2.98 3 4 C1.68 4 0.36 4 -1 4 C-0.67 2.68 -0.34 1.36 0 0 Z " fill="#ECC176" transform="translate(314,188)"/>
</svg>
